<?xml version="1.0" encoding="UTF-8" standalone="no"?>
<!DOCTYPE svg PUBLIC "-//W3C//DTD SVG 1.1//EN" "http://www.w3.org/Graphics/SVG/1.1/DTD/svg11.dtd">
<svg width="100%" height="100%" viewBox="0 0 115 240" version="1.1" xmlns="http://www.w3.org/2000/svg" xmlns:xlink="http://www.w3.org/1999/xlink" xml:space="preserve" xmlns:serif="http://www.serif.com/" style="fill-rule:evenodd;clip-rule:evenodd;stroke-linejoin:round;stroke-miterlimit:2;">
    <g id="back">
        <g transform="matrix(1,0,0,1,0.499875,1.47401)">
            <path d="M54.402,0.103C53.638,0.231 52.391,1.13 51.104,2.501C48.973,4.685 48.973,4.728 48.973,7.383C48.973,9.61 48.852,10.166 48.168,10.595C47.123,11.323 47.163,12.051 48.369,14.62C48.892,15.776 49.455,17.832 49.616,19.288C49.857,21.9 50.461,24.213 50.943,24.213C51.064,24.213 51.707,23.185 52.31,21.943C53.276,20.059 53.396,19.545 53.034,18.517C52.793,17.832 52.592,17.147 52.592,16.976C52.592,16.804 54.241,16.719 56.211,16.804C58.303,16.89 60.193,16.761 60.635,16.504C61.6,15.948 61.681,16.504 60.997,18.56C60.595,19.759 60.715,20.187 61.761,22.115L62.927,24.299L63.611,23.314C64.013,22.671 64.254,21.429 64.254,19.888C64.254,18.046 64.536,16.89 65.461,14.963C66.868,11.965 66.949,11.323 65.863,10.595C65.179,10.166 65.059,9.61 65.059,7.383C65.059,4.728 65.059,4.685 62.967,2.501C60.916,0.359 60.756,0.274 58.222,0.06C56.774,-0.026 55.085,-0.026 54.402,0.103Z" style="fill:rgb(58,58,60);fill-rule:nonzero;"/>
        </g>
        <g transform="matrix(1,0,0,1,0.499875,1.47401)">
            <path d="M54.925,20.101C55.006,21.386 54.885,23.099 54.644,23.913C54.241,25.112 54.282,25.626 54.684,26.311C55.448,27.596 55.609,27.467 56.091,25.155C56.735,21.9 56.132,17.789 55.006,17.789C54.885,17.789 54.804,18.817 54.925,20.101Z" style="fill:rgb(58,58,60);fill-rule:nonzero;"/>
        </g>
        <g transform="matrix(1,0,0,1,0.499875,1.47401)">
            <path d="M58.344,18.303C57.7,19.159 57.459,22.971 57.901,25.155C58.344,27.424 58.585,27.639 59.349,26.354C59.751,25.669 59.751,25.112 59.389,23.827C59.148,22.928 58.987,21.215 59.067,20.016C59.228,17.746 59.027,17.36 58.344,18.303Z" style="fill:rgb(58,58,60);fill-rule:nonzero;"/>
        </g>
        <g transform="matrix(1,0,0,1,0.499875,1.47401)">
            <path d="M47.726,31.536C44.75,33.891 42.297,35.99 42.217,36.161C42.176,36.332 43.504,36.632 45.233,36.803C46.922,36.932 49.657,37.446 51.305,37.96C52.954,38.431 54.362,38.773 54.442,38.645C54.523,38.559 54.724,36.461 54.844,33.977C55.086,30.123 55.005,29.352 54.402,28.367C54.04,27.725 53.557,27.211 53.437,27.211C53.276,27.211 50.702,29.138 47.726,31.536Z" style="fill:rgb(58,58,60);fill-rule:nonzero;"/>
        </g>
        <g transform="matrix(1,0,0,1,0.499875,1.47401)">
            <path d="M59.63,28.367C59.027,29.352 58.946,30.166 59.148,33.977C59.268,36.418 59.469,38.516 59.59,38.645C59.67,38.731 61.078,38.431 62.727,37.96C64.376,37.446 67.11,36.932 68.799,36.803C70.528,36.632 71.856,36.332 71.815,36.161C71.654,35.733 60.997,27.211 60.595,27.211C60.475,27.211 59.992,27.725 59.63,28.367Z" style="fill:rgb(58,58,60);fill-rule:nonzero;"/>
        </g>
        <g transform="matrix(1,0,0,1,0.499875,1.47401)">
            <path d="M39.924,37.96C38.839,38.174 37.27,38.474 36.506,38.602C35.139,38.859 35.219,38.902 38.718,40.272L42.337,41.685L44.549,47.681L46.761,53.719L50.702,57.659L54.683,61.642L54.402,52.006C54.241,46.739 54,42.285 53.839,42.157C53.598,41.9 42.176,37.446 42.016,37.531C41.975,37.574 41.051,37.746 39.924,37.96Z" style="fill:rgb(58,58,60);fill-rule:nonzero;"/>
        </g>
        <g transform="matrix(1,0,0,1,0.499875,1.47401)">
            <path d="M66.065,39.716C62.968,40.872 60.314,41.985 60.193,42.157C60.032,42.285 59.791,46.739 59.63,52.049L59.349,61.642L63.29,57.659L67.271,53.676L71.695,41.6L75.314,40.229C79.215,38.773 79.215,38.773 74.711,38.131C73.705,37.96 72.62,37.788 72.298,37.703C71.976,37.617 69.161,38.516 66.065,39.716Z" style="fill:rgb(58,58,60);fill-rule:nonzero;"/>
        </g>
        <g transform="matrix(1,0,0,1,0.499875,1.47401)">
            <path d="M29.066,45.026L26.452,49.394L26.935,52.435C27.216,54.105 27.538,55.432 27.699,55.389C28.061,55.218 38.476,42.499 38.517,42.157C38.517,42.028 36.989,41.643 35.098,41.3L31.72,40.658L29.066,45.026Z" style="fill:rgb(58,58,60);fill-rule:nonzero;"/>
        </g>
        <g transform="matrix(1,0,0,1,0.499875,1.47401)">
            <path d="M78.048,41.514C76.922,41.771 75.877,42.114 75.756,42.242C75.515,42.499 85.649,55.132 86.252,55.346C86.453,55.432 86.815,54.105 87.057,52.434L87.499,49.351L84.925,45.154C82.07,40.443 82.231,40.529 78.048,41.514Z" style="fill:rgb(58,58,60);fill-rule:nonzero;"/>
        </g>
        <g transform="matrix(1,0,0,1,0.499875,1.47401)">
            <path d="M36.627,47.038C34.053,49.993 33.611,50.893 33.771,52.991L33.892,54.833L38.919,55.561C41.694,55.989 44.147,56.289 44.388,56.203C44.67,56.16 44.107,54.062 42.941,50.764L41.05,45.411L39.643,45.283C38.436,45.154 38.034,45.411 36.627,47.038Z" style="fill:rgb(58,58,60);fill-rule:nonzero;"/>
        </g>
        <g transform="matrix(1,0,0,1,0.499875,1.47401)">
            <path d="M72.659,46.353C70.005,53.462 69.201,56.117 69.603,56.203C69.884,56.289 72.337,55.989 75.112,55.561L80.139,54.833L80.26,52.82C80.38,50.935 80.26,50.636 78.209,48.109C76.399,45.796 75.836,45.411 74.589,45.283C73.262,45.154 73.061,45.283 72.659,46.353Z" style="fill:rgb(58,58,60);fill-rule:nonzero;"/>
        </g>
        <g transform="matrix(1,0,0,1,0.499875,1.47401)">
            <path d="M27.739,58.516L23.557,63.141L23.878,69.993C24.039,74.19 24.321,77.016 24.602,77.273C24.844,77.444 25.889,78.044 26.935,78.515L28.825,79.371L31.238,74.832L33.651,70.25L32.887,62.156C32.444,57.702 32.042,54.019 32.002,53.976C31.921,53.933 30.031,55.989 27.739,58.516Z" style="fill:rgb(58,58,60);fill-rule:nonzero;"/>
        </g>
        <g transform="matrix(1,0,0,1,0.499875,1.47401)">
            <path d="M81.789,55.732C81.668,56.674 81.266,60.314 80.944,63.868L80.341,70.335L82.754,74.874L85.207,79.414L87.258,78.386C88.384,77.829 89.429,77.23 89.59,77.016C89.751,76.844 90.033,73.59 90.153,69.821L90.435,62.969L86.212,58.515L82.03,54.104L81.789,55.732Z" style="fill:rgb(58,58,60);fill-rule:nonzero;"/>
        </g>
        <g transform="matrix(1,0,0,1,0.499875,1.47401)">
            <path d="M54.416,105.664C51.44,103.48 50.354,101.553 51.118,99.754C51.882,97.956 55.622,87.806 55.622,87.806L56.326,85.965L56.351,85.889C56.661,84.938 56.913,84.166 57.07,84.166C57.271,84.166 57.553,84.98 57.834,85.965L58.437,87.806L62.941,99.712C63.746,101.639 62.781,103.523 59.885,105.664L57.15,107.677L54.416,105.664Z" style="fill:rgb(58,58,60);fill-rule:nonzero;"/>
        </g>
        <g transform="matrix(1,0,0,1,0.499875,1.47401)">
            <path d="M39.361,75.387C36.224,66.18 33.69,58.043 33.69,57.272C33.69,56.544 33.811,55.902 34.012,55.902C34.173,55.945 36.747,56.459 39.803,57.144L45.272,58.343L49.897,62.968C55.206,68.235 54.964,67.636 55.045,76.629L55.045,87L51,97L48.248,95.472L45.071,92.089L39.361,75.387Z" style="fill:rgb(58,58,60);fill-rule:nonzero;"/>
        </g>
        <g transform="matrix(1,0,0,1,0.499875,1.47401)">
            <path d="M74.68,75.674C77.817,66.377 80.35,58.162 80.35,57.384C80.35,56.649 80.229,56 80.028,56C79.867,56.043 77.294,56.562 74.238,57.254L68.77,58.465L64.146,63.134C58.839,68.453 59.08,67.847 59,76.928L59,87L63,97L65.795,95.952L68.971,92.537L74.68,75.674Z" style="fill:rgb(58,58,60);fill-rule:nonzero;"/>
        </g>
        <g transform="matrix(1,0,0,1,0.499875,1.47401)">
            <path d="M25.125,81.598C23.637,83.911 23.637,83.996 23.637,88.279C23.637,92.433 23.597,92.733 21.627,97.872C20.541,100.784 19.656,103.225 19.737,103.268C19.817,103.353 21.466,101.383 23.396,98.857C26.654,94.703 27.136,93.846 29.107,88.707C30.233,85.624 31.117,83.011 31.037,82.926C30.956,82.84 30.635,83.011 30.313,83.268C29.107,84.339 27.981,83.654 27.257,81.384L26.573,79.286L25.125,81.598Z" style="fill:rgb(58,58,60);fill-rule:nonzero;"/>
        </g>
        <g transform="matrix(1,0,0,1,0.499875,1.47401)">
            <path d="M86.734,81.47C86.091,83.654 84.925,84.339 83.718,83.268C83.397,83.011 83.075,82.84 82.994,82.926C82.914,83.011 83.799,85.624 84.925,88.707C86.895,93.846 87.378,94.703 90.635,98.857C92.566,101.383 94.214,103.353 94.295,103.268C94.375,103.225 93.531,100.827 92.405,97.957C90.434,92.904 90.394,92.647 90.394,88.493C90.394,84.296 90.354,84.125 88.986,81.812C88.182,80.528 87.498,79.457 87.418,79.457C87.378,79.457 87.056,80.356 86.734,81.47Z" style="fill:rgb(58,58,60);fill-rule:nonzero;"/>
        </g>
        <g transform="matrix(1,0,0,1,0.499875,1.47401)">
            <path d="M19.937,82.583C18.53,83.911 18.369,84.339 16.358,92.518C14.749,99.156 13.945,101.768 12.698,104.081L11.09,107.079L12.055,108.92C12.578,109.948 13.181,110.976 13.463,111.233C13.825,111.533 14.91,109.563 17.725,103.567L21.546,95.516L22.028,90.077C22.511,84.981 22.39,81.898 21.707,81.427C21.546,81.341 20.741,81.855 19.937,82.583Z" style="fill:rgb(58,58,60);fill-rule:nonzero;"/>
        </g>
        <g transform="matrix(1,0,0,1,0.499875,1.47401)">
            <path d="M91.963,82.326C91.601,83.225 91.641,85.024 91.963,89.478L92.445,95.43L96.266,103.524C99.121,109.563 100.207,111.533 100.569,111.233C100.85,110.976 101.453,109.948 101.976,108.92L102.941,107.079L101.333,104.081C100.086,101.768 99.242,99.113 97.593,92.39C95.502,83.868 95.421,83.653 93.933,82.412L92.405,81.084L91.963,82.326Z" style="fill:rgb(58,58,60);fill-rule:nonzero;"/>
        </g>
        <g transform="matrix(1,0,0,1,0.499875,1.47401)">
            <path d="M39.844,89.392C39.643,92.518 39.522,95.173 39.602,95.259C39.683,95.387 40.568,95.173 41.653,94.831C43.342,94.274 43.543,94.06 43.664,92.775C43.745,91.833 43.302,90.077 42.257,87.551C41.412,85.452 40.608,83.739 40.487,83.739C40.366,83.739 40.085,86.309 39.844,89.392Z" style="fill:rgb(58,58,60);fill-rule:nonzero;"/>
        </g>
        <g transform="matrix(1,0,0,1,0.499875,1.47401)">
            <path d="M71.734,87.551C70.769,90.034 70.287,91.876 70.367,92.775C70.488,94.06 70.689,94.274 72.378,94.831C73.464,95.173 74.348,95.387 74.429,95.259C74.67,94.959 73.785,83.739 73.504,83.739C73.383,83.739 72.579,85.452 71.734,87.551Z" style="fill:rgb(58,58,60);fill-rule:nonzero;"/>
        </g>
        <g transform="matrix(1,0,0,1,0.499875,1.47401)">
            <path d="M42.056,96.587C40.809,97.272 39.683,98.214 39.563,98.6C39.201,99.97 38.035,108.192 38.155,108.364C38.236,108.406 39.321,106.993 40.528,105.152C42.498,102.154 43.061,101.683 45.716,100.27L48.692,98.685L47.123,96.972C46.279,96.073 45.314,95.302 44.952,95.302C44.63,95.345 43.303,95.902 42.056,96.587Z" style="fill:rgb(58,58,60);fill-rule:nonzero;"/>
        </g>
        <g transform="matrix(1,0,0,1,0.499875,1.47401)">
            <path d="M66.909,96.972L65.341,98.685L68.317,100.27C71.011,101.683 71.534,102.154 73.625,105.28C74.872,107.164 75.917,108.449 75.917,108.107C75.917,107.721 75.555,105.366 75.113,102.796C74.671,100.227 74.309,98.086 74.309,98C74.309,97.743 69.483,95.302 68.96,95.302C68.679,95.302 67.754,96.073 66.909,96.972Z" style="fill:rgb(58,58,60);fill-rule:nonzero;"/>
        </g>
        <g transform="matrix(1,0,0,1,0.499875,1.47401)">
            <path d="M45.555,102.796C42.096,104.338 41.775,104.681 39.04,110.205C37.793,112.774 37.713,113.16 37.713,117.357C37.713,120.868 37.914,122.367 38.557,124.294C39.04,125.665 39.603,127.206 39.764,127.72C40.086,128.62 40.246,128.491 42.539,125.965C44.67,123.609 45.635,122.924 50.381,120.569L55.81,117.871L55.81,114.145C55.81,108.449 55.609,107.892 53.196,106.179C51.708,105.109 50.903,104.21 50.461,102.968C50.139,102.068 49.617,101.297 49.295,101.34C49.013,101.34 47.324,102.025 45.555,102.796Z" style="fill:rgb(58,58,60);fill-rule:nonzero;"/>
        </g>
        <g transform="matrix(1,0,0,1,0.499875,1.47401)">
            <path d="M63.49,103.096C62.927,104.466 62.243,105.28 60.715,106.222C59.589,106.907 58.584,107.892 58.463,108.363C58.342,108.835 58.222,111.147 58.222,113.545L58.222,117.871L63.691,120.611C68.557,123.01 69.442,123.652 71.533,126.05C73.785,128.62 73.946,128.705 74.268,127.763C76.399,121.682 76.399,121.596 76.278,116.843L76.117,112.218L73.906,108.192L71.694,104.209L68.316,102.753C66.426,101.94 64.737,101.297 64.576,101.297C64.375,101.297 63.892,102.111 63.49,103.096Z" style="fill:rgb(58,58,60);fill-rule:nonzero;"/>
        </g>
        <g transform="matrix(1,0,0,1,0.499875,1.47401)">
            <path d="M6.546,112.004C4.897,112.775 3.047,114.017 2.042,115.087C0.393,116.8 -0.291,118.342 0.835,117.871C5.138,116.029 5.46,115.944 5.621,116.415C5.742,116.715 4.656,119.241 3.248,122.068C1.841,124.894 0.715,127.25 0.715,127.292C0.715,127.378 1.117,127.421 1.64,127.421C2.283,127.421 2.886,126.736 4.093,124.637C4.937,123.095 5.782,121.854 5.983,121.854C6.747,121.854 6.626,122.71 5.34,125.836L3.972,129.134L5.098,129.134C6.023,129.134 6.305,128.791 7.31,126.222C8.718,122.796 8.999,122.367 9.602,123.01C9.924,123.352 9.844,124.209 9.2,126.179C8.557,128.192 8.476,128.963 8.838,129.177C9.602,129.691 9.803,129.348 10.97,126.136C11.613,124.38 12.297,123.138 12.618,123.138C13.302,123.138 13.302,123.524 12.618,126.65C12.096,128.92 12.096,129.134 12.739,129.134C13.704,129.134 15.192,122.282 15.192,117.914L15.192,114.616L13.704,114.359C11.332,113.931 11.251,113.845 10.608,112.218C10.286,111.404 9.844,110.719 9.683,110.719C9.522,110.719 8.114,111.319 6.546,112.004Z" style="fill:rgb(58,58,60);fill-rule:nonzero;"/>
        </g>
        <g transform="matrix(1,0,0,1,0.499875,1.47401)">
            <path d="M103.424,112.218C102.781,113.845 102.7,113.931 100.368,114.359L98.84,114.616L98.84,117.914C98.84,122.282 100.328,129.134 101.293,129.134C101.936,129.134 101.936,128.92 101.414,126.65C100.73,123.524 100.73,123.138 101.414,123.138C101.735,123.138 102.419,124.38 103.062,126.136C104.229,129.348 104.43,129.69 105.194,129.177C105.556,128.962 105.475,128.192 104.832,126.179C104.188,124.209 104.108,123.352 104.43,123.01C105.033,122.367 105.314,122.796 106.722,126.222C107.727,128.791 108.009,129.134 108.934,129.134L110.06,129.134L108.693,125.836C107.406,122.71 107.285,121.854 108.049,121.854C108.25,121.854 109.095,123.095 109.939,124.637C111.146,126.736 111.749,127.421 112.433,127.421C112.915,127.421 113.317,127.378 113.317,127.292C113.317,127.249 112.191,124.894 110.784,122.068C109.376,119.241 108.29,116.715 108.411,116.415C108.572,115.944 108.894,116.029 113.237,117.871C113.478,117.999 113.719,117.828 113.719,117.485C113.719,116.458 110.382,113.374 108.089,112.304C104.148,110.462 104.148,110.462 103.424,112.218Z" style="fill:rgb(58,58,60);fill-rule:nonzero;"/>
        </g>
        <g transform="matrix(1,0,0,1,0.499875,1.47401)">
            <path d="M52.552,121.168L51.105,122.239L50.863,130.076C50.702,136.585 50.783,138.512 51.346,141.553C52.15,145.664 52.03,145.835 53.598,138.041C54.402,133.93 54.603,131.789 54.603,126.564C54.603,123.052 54.483,120.14 54.282,120.14C54.121,120.14 53.357,120.611 52.552,121.168Z" style="fill:rgb(58,58,60);fill-rule:nonzero;"/>
        </g>
        <g transform="matrix(1,0,0,1,0.499875,1.47401)">
            <path d="M59.429,126.693C59.429,132.132 59.59,134.144 60.434,138.17C62.003,145.836 61.882,145.664 62.646,141.51C63.169,138.598 63.289,136.243 63.129,130.033L62.927,122.239L61.48,121.168C60.716,120.612 59.911,120.141 59.75,120.141C59.549,120.141 59.429,123.095 59.429,126.693Z" style="fill:rgb(58,58,60);fill-rule:nonzero;"/>
        </g>
        <g transform="matrix(1,0,0,1,0.499875,1.47401)">
            <path d="M47.445,124.552C46.48,125.065 45.635,125.836 45.555,126.35C45.434,126.821 44.911,130.162 44.308,133.802L43.263,140.354L43.906,148.662L44.55,157.013L47.204,164.079C48.692,167.976 49.938,171.102 49.979,171.017C50.059,170.931 50.662,169.432 51.386,167.676L52.673,164.464L52.15,157.398C51.788,151.874 51.386,149.304 50.381,145.621C49.134,140.953 49.134,140.825 49.416,134.701C49.818,126.35 49.818,123.567 49.496,123.609C49.295,123.609 48.41,124.038 47.445,124.552Z" style="fill:rgb(58,58,60);fill-rule:nonzero;"/>
        </g>
        <g transform="matrix(1,0,0,1,0.499875,1.47401)">
            <path d="M64.295,126.65C64.335,128.363 64.456,132.26 64.617,135.343C64.858,140.739 64.858,141.039 63.611,145.407C62.646,149.005 62.284,151.403 61.882,157.184L61.359,164.464L62.646,167.676C63.37,169.432 63.973,170.931 64.054,171.017C64.094,171.102 65.341,167.976 66.829,164.079L69.483,157.013L70.086,148.705L70.73,140.397L69.684,133.802C69.121,130.162 68.598,126.821 68.477,126.35C68.357,125.622 65.341,123.567 64.456,123.567C64.335,123.567 64.255,124.98 64.295,126.65Z" style="fill:rgb(58,58,60);fill-rule:nonzero;"/>
        </g>
        <g transform="matrix(1,0,0,1,0.499875,1.47401)">
            <path d="M36.426,125.793C36.346,126.093 36.346,129.048 36.466,132.346L36.708,138.341L38.96,129.947L38.075,127.592C37.15,125.279 36.748,124.808 36.426,125.793Z" style="fill:rgb(58,58,60);fill-rule:nonzero;"/>
        </g>
        <g transform="matrix(1,0,0,1,0.499875,1.47401)">
            <path d="M75.957,127.678L75.032,130.033L76.158,134.187L77.325,138.341L77.526,132.56C77.807,124.423 77.526,123.566 75.957,127.678Z" style="fill:rgb(58,58,60);fill-rule:nonzero;"/>
        </g>
        <g transform="matrix(1,0,0,1,0.499875,1.47401)">
            <path d="M41.332,129.605C40.568,130.119 39.844,130.59 39.764,130.675C39.683,130.761 38.959,134.358 38.155,138.641L36.667,146.478L37.954,150.889C38.879,154.015 39.321,156.584 39.522,159.839C40.005,167.119 40.166,167.205 41.774,160.696L43.182,154.957L42.176,151.788L41.211,148.619L42.096,139.412C42.579,134.358 43.101,129.862 43.182,129.433C43.463,128.491 43.061,128.491 41.332,129.605Z" style="fill:rgb(58,58,60);fill-rule:nonzero;"/>
        </g>
        <g transform="matrix(1,0,0,1,0.499875,1.47401)">
            <path d="M70.85,129.862C70.97,130.547 71.453,135.044 71.936,139.883L72.82,148.662L71.815,151.874L70.85,155.043L72.257,160.824C73.866,167.291 73.986,167.248 74.469,159.668C74.63,156.842 75.153,154.015 75.997,151.06L77.284,146.606L75.957,139.069C75.193,134.915 74.55,131.275 74.429,131.061C74.308,130.633 71.373,128.706 70.89,128.706C70.729,128.706 70.729,129.219 70.85,129.862Z" style="fill:rgb(58,58,60);fill-rule:nonzero;"/>
        </g>
        <g transform="matrix(1,0,0,1,0.499875,1.47401)">
            <path d="M42.538,164.978C42.538,166.091 42.055,168.618 41.492,170.588C40.688,173.415 40.366,175.941 39.964,182.408L39.441,190.587L41.412,194.827L43.423,199.067L44.468,197.953L45.514,196.84L44.83,192.001C44.307,188.018 44.227,185.106 44.428,175.684C44.669,164.764 44.629,164.207 43.905,163.608C42.699,162.665 42.538,162.837 42.538,164.978Z" style="fill:rgb(58,58,60);fill-rule:nonzero;"/>
        </g>
        <g transform="matrix(1,0,0,1,0.499875,1.47401)">
            <path d="M70.126,163.608C69.402,164.164 69.402,164.807 69.603,175.47C69.764,184.463 69.684,187.761 69.161,191.786L68.518,196.797L69.563,197.953L70.649,199.067L72.579,194.827L74.55,190.587L74.027,182.365C73.625,175.856 73.303,173.372 72.499,170.545C71.936,168.575 71.494,166.091 71.494,164.978C71.494,162.837 71.333,162.665 70.126,163.608Z" style="fill:rgb(58,58,60);fill-rule:nonzero;"/>
        </g>
        <g transform="matrix(1,0,0,1,0.499875,1.47401)">
            <path d="M46.359,180.481C46.519,190.502 46.761,194.998 47.082,195.512C47.364,195.898 48.409,197.225 49.415,198.424L51.305,200.651L52.391,198.852C54.08,196.112 54.2,191.829 52.793,183.692C51.707,177.568 51.546,177.097 48.892,171.744L46.117,166.177L46.359,180.481Z" style="fill:rgb(58,58,60);fill-rule:nonzero;"/>
        </g>
        <g transform="matrix(1,0,0,1,0.499875,1.47401)">
            <path d="M64.938,172.087C62.445,177.312 62.163,178.168 61.238,183.522C59.67,192.558 59.911,196.626 62.163,199.666L62.847,200.609L65.099,197.782L67.391,194.956L67.672,182.494C67.833,175.642 67.874,169.218 67.793,168.233L67.672,166.434L64.938,172.087Z" style="fill:rgb(58,58,60);fill-rule:nonzero;"/>
        </g>
        <g transform="matrix(1,0,0,1,0.499875,1.47401)">
            <path d="M44.952,199.152L43.986,200.223L45.675,208.917C46.962,215.64 47.445,219.237 47.767,225.062C48.048,229.944 48.37,232.642 48.692,232.856C49.053,233.113 49.255,231.528 49.456,226.646C49.616,223.049 50.139,217.053 50.582,213.285C51.828,202.964 51.868,203.306 48.812,200.48C47.405,199.152 46.198,198.082 46.078,198.082C45.997,198.082 45.474,198.553 44.952,199.152Z" style="fill:rgb(58,58,60);fill-rule:nonzero;"/>
        </g>
        <g transform="matrix(1,0,0,1,0.499875,1.47401)">
            <path d="M65.099,200.566L62.525,203.007L62.727,206.004C62.847,207.675 63.209,211.7 63.611,214.998C63.973,218.295 64.415,223.734 64.576,227.074C64.978,235.639 65.662,234.826 66.225,225.062C66.547,219.237 67.03,215.597 68.357,208.874L70.005,200.223L69.08,199.152C68.558,198.553 68.035,198.082 67.914,198.082C67.794,198.082 66.507,199.195 65.099,200.566Z" style="fill:rgb(58,58,60);fill-rule:nonzero;"/>
        </g>
        <g transform="matrix(1,0,0,1,0.499875,1.47401)">
            <path d="M43.343,213.542C43.343,216.882 43.664,220.351 44.308,224.291C44.871,227.503 45.193,230.543 45.072,231.014C44.791,232.128 45.595,233.241 46.439,232.899C47.324,232.513 46.801,223.092 45.474,215.64C44.067,207.718 43.343,206.99 43.343,213.542Z" style="fill:rgb(58,58,60);fill-rule:nonzero;"/>
        </g>
        <g transform="matrix(1,0,0,1,0.499875,1.47401)">
            <path d="M70.046,209.259C69.161,210.373 67.512,220.865 67.231,226.817C66.989,231.871 67.07,232.684 67.593,232.899C68.437,233.241 69.241,232.128 68.96,231.014C68.839,230.5 69.161,227.374 69.724,224.077C70.448,219.537 70.689,216.839 70.609,213.328C70.528,209.73 70.367,208.788 70.046,209.259Z" style="fill:rgb(58,58,60);fill-rule:nonzero;"/>
        </g>
        <g transform="matrix(1,0,0,1,0.499875,1.47401)">
            <path d="M42.217,231.785C41.895,232.385 42.217,233.027 43.745,234.826L45.715,237.052L47.847,236.624C49.978,236.153 52.592,234.997 52.592,234.526C52.552,234.397 52.23,233.798 51.788,233.284L50.983,232.256L49.938,233.155C48.249,234.569 46.238,234.355 44.227,232.556C42.739,231.185 42.538,231.1 42.217,231.785Z" style="fill:rgb(58,58,60);fill-rule:nonzero;"/>
        </g>
        <g transform="matrix(1,0,0,1,0.499875,1.47401)">
            <path d="M69.724,232.599C67.834,234.355 65.783,234.569 64.094,233.155L63.048,232.256L62.244,233.284C61.198,234.611 61.238,234.654 62.767,235.468C63.933,236.11 68.276,237.224 68.477,236.967C68.517,236.881 69.362,235.853 70.407,234.654C71.976,232.813 72.217,232.385 71.775,231.785C71.332,231.185 71.131,231.271 69.724,232.599Z" style="fill:rgb(58,58,60);fill-rule:nonzero;"/>
        </g>
    </g>
</svg>
