<?xml version="1.0" encoding="UTF-8" standalone="no"?>
<!DOCTYPE svg PUBLIC "-//W3C//DTD SVG 1.1//EN" "http://www.w3.org/Graphics/SVG/1.1/DTD/svg11.dtd">
<svg width="100%" height="100%" viewBox="0 0 115 240" version="1.1" xmlns="http://www.w3.org/2000/svg" xmlns:xlink="http://www.w3.org/1999/xlink" xml:space="preserve" xmlns:serif="http://www.serif.com/" style="fill-rule:evenodd;clip-rule:evenodd;stroke-linejoin:round;stroke-miterlimit:2;">
    <g id="front">
        <g transform="matrix(1,0,0,1,0.498659,1.475)">
            <path d="M51.264,1.678C48.831,3.475 48.75,3.646 48.304,8.395C48.101,10.192 47.776,11.262 47.249,11.775C46.114,12.845 46.56,16.054 47.979,17.338C48.831,18.108 49.033,18.75 49.196,21.103L49.439,23.97L52.115,26.494C54.751,29.019 54.791,29.061 57.224,29.061C59.657,29.019 59.657,29.019 62.414,26.323L65.131,23.628L65.131,20.975C65.131,18.664 65.252,18.194 66.144,17.381C66.793,16.782 67.28,15.712 67.482,14.471C67.807,12.76 67.726,12.375 66.955,11.433C66.266,10.577 65.982,9.508 65.779,6.898L65.496,3.475L62.941,1.72C60.468,0.009 60.306,-0.034 56.981,0.009C53.696,0.009 53.494,0.052 51.264,1.678Z" style="fill:rgb(58,58,60);fill-rule:nonzero;"/>
        </g>
        <g transform="matrix(1,0,0,1,0.498659,1.475)">
            <path d="M50.332,29.917C50.575,33.298 50.737,33.854 52.846,37.748C54.103,40.058 55.197,41.855 55.278,41.727C55.359,41.641 55.238,39.63 54.954,37.234C54.468,33.041 54.427,32.827 52.237,29.618L50.048,26.281L50.332,29.917Z" style="fill:rgb(58,58,60);fill-rule:nonzero;"/>
        </g>
        <g transform="matrix(1,0,0,1,0.498659,1.475)">
            <path d="M61.968,29.618C59.982,32.613 59.901,32.955 59.292,37.405C58.968,39.972 58.725,42.111 58.765,42.197C58.846,42.24 59.901,40.486 61.157,38.303C63.185,34.709 63.469,33.939 63.874,30.559C64.158,28.505 64.28,26.751 64.198,26.665C64.117,26.537 63.104,27.906 61.968,29.618Z" style="fill:rgb(58,58,60);fill-rule:nonzero;"/>
        </g>
        <g transform="matrix(1,0,0,1,0.498659,1.475)">
            <path d="M45.061,36.55L41.006,38.86L46.561,38.903L52.156,38.903L51.062,36.55C50.453,35.266 49.764,34.196 49.521,34.196C49.318,34.196 47.291,35.266 45.061,36.55Z" style="fill:rgb(58,58,60);fill-rule:nonzero;"/>
        </g>
        <g transform="matrix(1,0,0,1,0.498659,1.475)">
            <path d="M63.185,36.55L61.969,38.903L67.402,38.903C70.403,38.903 72.835,38.817 72.835,38.732C72.835,38.475 65.172,34.196 64.766,34.196C64.564,34.196 63.834,35.266 63.185,36.55Z" style="fill:rgb(58,58,60);fill-rule:nonzero;"/>
        </g>
        <g transform="matrix(1,0,0,1,0.498659,1.475)">
            <path d="M29.612,44.679L27.301,47.888L27.382,51.61C27.422,53.664 27.504,55.418 27.585,55.461C27.625,55.547 28.396,53.75 29.288,51.482C30.788,47.674 31.031,47.246 33.829,44.807C37.073,41.898 37.073,41.47 33.829,41.47C31.923,41.47 31.883,41.47 29.612,44.679Z" style="fill:rgb(58,58,60);fill-rule:nonzero;"/>
        </g>
        <g transform="matrix(1,0,0,1,0.498659,1.475)">
            <path d="M44.533,41.77C44.006,41.983 39.829,50.413 40.073,50.712C40.194,50.798 43.641,51.397 47.817,52.081L55.4,53.279L55.4,50.669C55.4,49.215 55.278,47.161 55.156,46.091L54.913,44.166L50.777,42.796C46.804,41.513 45.628,41.299 44.533,41.77Z" style="fill:rgb(58,58,60);fill-rule:nonzero;"/>
        </g>
        <g transform="matrix(1,0,0,1,0.498659,1.475)">
            <path d="M63.225,42.882C58.968,44.38 59.049,44.208 59.049,49.642L59.049,53.279L66.469,52.081C70.524,51.439 73.97,50.883 74.132,50.883C74.579,50.883 70.767,42.625 70.078,41.983C69.105,41.17 67.321,41.427 63.225,42.882Z" style="fill:rgb(58,58,60);fill-rule:nonzero;"/>
        </g>
        <g transform="matrix(1,0,0,1,0.498659,1.475)">
            <path d="M78.025,41.769C77.539,41.898 78.147,42.711 80.458,44.893C83.296,47.503 83.702,48.145 84.959,51.354C85.729,53.322 86.5,55.119 86.702,55.333C86.865,55.59 87.027,54.049 87.027,51.91L87.027,48.059L84.716,44.765C82.404,41.47 82.404,41.47 80.539,41.513C79.525,41.555 78.39,41.641 78.025,41.769Z" style="fill:rgb(58,58,60);fill-rule:nonzero;"/>
        </g>
        <g transform="matrix(1,0,0,1,0.498659,1.475)">
            <path d="M35.573,44.85C32.572,47.674 32.288,48.059 30.91,51.782C30.099,53.921 29.491,55.761 29.531,55.847C29.612,55.932 31.478,55.034 33.627,53.836L37.56,51.696L39.79,47.032C41.006,44.422 42.02,42.24 42.02,42.112C42.02,41.984 41.29,41.898 40.398,41.898C38.979,41.898 38.411,42.24 35.573,44.85Z" style="fill:rgb(58,58,60);fill-rule:nonzero;"/>
        </g>
        <g transform="matrix(1,0,0,1,0.498659,1.475)">
            <path d="M72.43,42.326C72.43,42.582 73.403,44.85 74.619,47.374L76.809,51.953L80.701,53.964C82.85,55.119 84.675,56.017 84.756,56.017C84.878,56.017 84.229,54.135 83.337,51.781C81.756,47.759 81.553,47.417 78.593,44.722C75.957,42.326 75.227,41.898 73.971,41.898C73.119,41.898 72.43,42.112 72.43,42.326Z" style="fill:rgb(58,58,60);fill-rule:nonzero;"/>
        </g>
        <g transform="matrix(1,0,0,1,0.498659,1.475)">
            <path d="M37.437,53.493C36.626,54.22 36.018,54.948 36.14,55.119C36.221,55.333 38.491,56.83 41.167,58.542L46.033,61.623L50.777,60.767C53.372,60.296 55.602,59.826 55.683,59.697C55.805,59.612 55.764,58.456 55.602,57.13C55.359,55.162 55.156,54.691 54.426,54.52C52.034,54.006 40.762,52.167 39.91,52.167C39.383,52.167 38.289,52.766 37.437,53.493Z" style="fill:rgb(58,58,60);fill-rule:nonzero;"/>
        </g>
        <g transform="matrix(1,0,0,1,0.498659,1.475)">
            <path d="M66.023,53.45C62.414,54.049 59.333,54.734 59.17,54.862C59.049,55.033 58.846,56.189 58.724,57.472C58.522,60.125 57.873,59.74 64.644,60.938L68.375,61.623L73.281,58.542C75.957,56.83 78.228,55.333 78.309,55.119C78.43,54.948 77.822,54.22 76.93,53.493C75.024,51.91 74.781,51.91 66.023,53.45Z" style="fill:rgb(58,58,60);fill-rule:nonzero;"/>
        </g>
        <g transform="matrix(1,0,0,1,0.498659,1.475)">
            <path d="M31.234,57.472L29.166,58.456L27.706,64.746C26.084,71.506 26.003,72.448 26.652,75.657L27.057,77.796L29.328,76.256C31.274,74.886 31.801,74.202 33.342,70.907C34.721,68.041 35.248,66.243 35.775,62.992L36.383,58.798L35.086,57.6C34.356,56.959 33.626,56.445 33.504,56.488C33.383,56.488 32.369,56.959 31.234,57.472Z" style="fill:rgb(58,58,60);fill-rule:nonzero;"/>
        </g>
        <g transform="matrix(1,0,0,1,0.498659,1.475)">
            <path d="M79.242,57.557L77.863,58.627L78.512,62.991C79.039,66.543 79.526,68.04 80.985,70.993C82.486,74.03 83.134,74.886 85,76.255L87.23,77.881L87.757,74.886C88.243,71.977 88.243,71.763 86.662,65.216C85.811,61.537 85,58.456 84.919,58.37C84.878,58.285 83.864,57.857 82.729,57.386L80.661,56.488L79.242,57.557Z" style="fill:rgb(58,58,60);fill-rule:nonzero;"/>
        </g>
        <g transform="matrix(1,0,0,1,0.498659,1.475)">
            <path d="M37.964,59.526C37.964,59.825 37.843,60.51 37.721,61.023C37.437,62.179 38.613,62.649 40.195,62.008L41.33,61.537L39.951,60.296C38.41,58.927 37.964,58.756 37.964,59.526Z" style="fill:rgb(58,58,60);fill-rule:nonzero;"/>
        </g>
        <g transform="matrix(1,0,0,1,0.498659,1.475)">
            <path d="M74.417,60.211L73.038,61.494L74.133,62.008C75.512,62.692 76.485,62.307 76.485,61.066C76.485,59.055 75.876,58.841 74.417,60.211Z" style="fill:rgb(58,58,60);fill-rule:nonzero;"/>
        </g>
        <g transform="matrix(1,0,0,1,0.498659,1.475)">
            <path d="M24.908,63.291L22.962,66.201L22.962,70.094C22.962,73.86 23.003,74.074 24.462,76.341C25.273,77.668 26.003,78.609 26.084,78.524C26.165,78.438 25.962,76.641 25.598,74.544C24.949,70.822 24.949,70.693 25.962,65.687C26.53,62.863 26.976,60.51 26.895,60.467C26.854,60.425 25.962,61.708 24.908,63.291Z" style="fill:rgb(58,58,60);fill-rule:nonzero;"/>
        </g>
        <g transform="matrix(1,0,0,1,0.498659,1.475)">
            <path d="M87.432,61.152C87.432,61.494 87.878,63.804 88.364,66.286C89.297,70.693 89.297,70.822 88.608,74.844C88.243,77.069 87.999,78.951 88.04,79.037C88.08,79.08 88.77,78.095 89.581,76.812C91,74.587 91.04,74.373 91.121,70.18L91.162,65.901L89.621,63.633C87.594,60.638 87.432,60.424 87.432,61.152Z" style="fill:rgb(58,58,60);fill-rule:nonzero;"/>
        </g>
        <g transform="matrix(1,0,0,1,0.498659,1.475)">
            <path d="M41.613,62.222C41.167,62.778 41.411,62.992 42.992,63.762C44.736,64.575 45.668,64.575 45.668,63.762C45.668,63.462 42.789,61.58 42.303,61.58C42.222,61.58 41.897,61.879 41.613,62.222Z" style="fill:rgb(58,58,60);fill-rule:nonzero;"/>
        </g>
        <g transform="matrix(1,0,0,1,0.498659,1.475)">
            <path d="M69.875,62.607C68.618,63.42 68.456,63.676 68.902,64.104C69.348,64.489 69.916,64.404 71.416,63.719C73.038,62.992 73.241,62.735 72.835,62.222C72.146,61.366 71.7,61.409 69.875,62.607Z" style="fill:rgb(58,58,60);fill-rule:nonzero;"/>
        </g>
        <g transform="matrix(1,0,0,1,0.498659,1.475)">
            <path d="M37.397,64.189C36.991,66.414 37.072,66.628 38.978,67.27C39.992,67.655 40.803,67.869 40.803,67.741C40.803,67.185 39.181,64.275 38.451,63.591C37.681,62.863 37.64,62.863 37.397,64.189Z" style="fill:rgb(58,58,60);fill-rule:nonzero;"/>
        </g>
        <g transform="matrix(1,0,0,1,0.498659,1.475)">
            <path d="M75.593,63.591C74.863,64.49 73.647,66.929 73.647,67.528C73.647,67.784 74.417,67.656 75.431,67.314C77.215,66.672 77.215,66.629 77.012,65.089C76.728,63.035 76.363,62.65 75.593,63.591Z" style="fill:rgb(58,58,60);fill-rule:nonzero;"/>
        </g>
        <g transform="matrix(1,0,0,1,0.498659,1.475)">
            <path d="M40.398,64.618C40.398,65.131 41.249,66.629 42.303,67.912L44.209,70.265L44.777,68.468C45.101,67.484 45.263,66.629 45.223,66.543C44.087,65.73 40.884,63.719 40.681,63.719C40.519,63.719 40.398,64.147 40.398,64.618Z" style="fill:rgb(58,58,60);fill-rule:nonzero;"/>
        </g>
        <g transform="matrix(1,0,0,1,0.498659,1.475)">
            <path d="M51.182,64.96C47.087,66.415 46.276,67.399 46.763,70.266L47.087,72.277L49.358,70.822C50.615,70.009 52.399,69.239 53.331,69.068C54.669,68.854 54.994,68.597 54.994,67.87C54.994,67.356 55.115,66.201 55.237,65.302C55.561,63.377 55.521,63.377 51.182,64.96Z" style="fill:rgb(58,58,60);fill-rule:nonzero;"/>
        </g>
        <g transform="matrix(1,0,0,1,0.498659,1.475)">
            <path d="M59.13,66.158L59.252,68.64L61.198,69.153C62.252,69.41 63.996,70.223 65.091,70.95C66.186,71.635 67.199,72.106 67.321,71.977C67.443,71.806 67.564,70.779 67.564,69.624C67.564,68.169 67.321,67.314 66.794,66.757C66.145,66.073 60.347,63.719 59.333,63.719C59.171,63.719 59.049,64.832 59.13,66.158Z" style="fill:rgb(58,58,60);fill-rule:nonzero;"/>
        </g>
        <g transform="matrix(1,0,0,1,0.498659,1.475)">
            <path d="M71.091,65.131C69.226,66.372 69.145,66.501 69.388,67.955C69.55,68.811 69.794,69.624 69.915,69.795C70.321,70.18 73.564,66.158 73.848,64.875C74.213,63.377 73.605,63.42 71.091,65.131Z" style="fill:rgb(58,58,60);fill-rule:nonzero;"/>
        </g>
        <g transform="matrix(1,0,0,1,0.498659,1.475)">
            <path d="M38.37,68.64C38.37,68.768 39.505,70.394 40.925,72.277C43.641,75.999 43.925,75.999 44.006,72.277C44.047,70.908 43.844,70.694 42.019,69.581C40.195,68.554 38.37,68.084 38.37,68.64Z" style="fill:rgb(58,58,60);fill-rule:nonzero;"/>
        </g>
        <g transform="matrix(1,0,0,1,0.498659,1.475)">
            <path d="M72.187,69.71L70.078,70.95L70.281,73.004C70.403,74.117 70.524,75.229 70.565,75.443C70.605,75.743 73.16,72.619 75.795,68.939C76.525,67.955 74.336,68.383 72.187,69.71Z" style="fill:rgb(58,58,60);fill-rule:nonzero;"/>
        </g>
        <g transform="matrix(1,0,0,1,0.498659,1.475)">
            <path d="M75.268,71.507C74.497,72.961 73.038,75.186 72.065,76.427C70.483,78.524 70.321,78.952 70.524,80.492C70.645,81.433 70.848,82.289 70.97,82.46C71.132,82.589 72.308,81.604 73.565,80.278C75.795,77.925 75.957,77.668 76.606,74.245C77.011,72.191 77.174,70.309 77.011,69.795C76.728,69.025 76.525,69.239 75.268,71.507Z" style="fill:rgb(58,58,60);fill-rule:nonzero;"/>
        </g>
        <g transform="matrix(1,0,0,1,0.498659,1.475)">
            <path d="M37.153,70.608C37.153,71.293 37.437,73.218 37.802,74.801C38.329,77.326 38.694,78.053 40.519,80.15C41.695,81.476 42.871,82.546 43.154,82.546C43.479,82.546 43.641,81.818 43.641,80.449C43.641,78.695 43.438,78.053 42.262,76.641C41.532,75.657 40.194,73.646 39.343,72.106C38.491,70.565 37.64,69.282 37.478,69.282C37.316,69.282 37.153,69.881 37.153,70.608Z" style="fill:rgb(58,58,60);fill-rule:nonzero;"/>
        </g>
        <g transform="matrix(1,0,0,1,0.498659,1.475)">
            <path d="M51.061,72.833L47.29,74.544L47.29,77.069C47.29,78.438 47.371,79.55 47.493,79.55C47.574,79.55 48.263,79.251 48.993,78.951C49.723,78.609 51.345,78.181 52.602,78.053L54.872,77.796L55.116,74.715C55.278,73.047 55.237,71.506 55.075,71.378C54.913,71.25 53.088,71.891 51.061,72.833Z" style="fill:rgb(58,58,60);fill-rule:nonzero;"/>
        </g>
        <g transform="matrix(1,0,0,1,0.498659,1.475)">
            <path d="M59.049,71.036L59.049,77.753L61.806,78.053C63.306,78.224 65.009,78.652 65.618,78.951C66.226,79.294 66.793,79.55 66.956,79.55C67.402,79.55 67.158,74.887 66.672,74.544C66.388,74.373 64.563,73.475 62.617,72.619L59.049,71.036Z" style="fill:rgb(58,58,60);fill-rule:nonzero;"/>
        </g>
        <g transform="matrix(1,0,0,1,0.498659,1.475)">
            <path d="M29.044,79.123C26.774,81.775 25.8,83.188 25.963,83.658C26.125,84.129 26.368,84.214 26.733,83.958C26.976,83.701 28.233,82.76 29.531,81.775C31.599,80.192 31.842,79.807 32.247,77.796C32.491,76.555 32.653,75.486 32.572,75.4C32.45,75.315 30.909,76.983 29.044,79.123Z" style="fill:rgb(58,58,60);fill-rule:nonzero;"/>
        </g>
        <g transform="matrix(1,0,0,1,0.498659,1.475)">
            <path d="M81.917,76.941C82.039,77.711 82.161,78.738 82.161,79.123C82.161,79.593 83.215,80.663 84.715,81.775C88.162,84.385 88.121,84.343 88.364,83.444C88.486,82.845 87.594,81.647 85.121,79.08C81.755,75.614 81.674,75.528 81.917,76.941Z" style="fill:rgb(58,58,60);fill-rule:nonzero;"/>
        </g>
        <g transform="matrix(1,0,0,1,0.498659,1.475)">
            <path d="M90.514,78.951C89.824,86.182 89.338,84.727 96.353,96.879C101.826,106.335 103.651,108.987 103.651,107.404C103.651,107.19 102.272,104.324 100.61,101.072C98.056,96.023 97.528,94.654 97.163,91.958C96.515,86.909 94.082,80.106 92.298,78.095L90.757,76.469L90.514,78.951Z" style="fill:rgb(58,58,60);fill-rule:nonzero;"/>
        </g>
        <g transform="matrix(1,0,0,1,0.498659,1.475)">
            <path d="M21.786,78.438C20.205,80.192 17.529,87.851 17.083,91.958C16.839,94.269 16.272,95.766 13.758,100.815C12.095,104.153 10.717,107.019 10.717,107.233C10.798,108.645 12.339,106.42 17.853,96.879L24.219,85.925L23.935,81.476C23.773,78.994 23.53,76.983 23.408,76.983C23.246,76.983 22.516,77.625 21.786,78.438Z" style="fill:rgb(58,58,60);fill-rule:nonzero;"/>
        </g>
        <g transform="matrix(1,0,0,1,0.498659,1.475)">
            <path d="M49.44,81.562L47.331,81.733L47.088,83.573C46.642,86.653 46.845,86.996 49.115,87.295C50.251,87.423 51.954,87.937 52.967,88.45C54.305,89.092 54.833,89.22 55.076,88.835C55.238,88.536 55.4,86.739 55.4,84.771L55.4,81.262L53.494,81.348C52.4,81.39 50.616,81.476 49.44,81.562Z" style="fill:rgb(58,58,60);fill-rule:nonzero;"/>
        </g>
        <g transform="matrix(1,0,0,1,0.498659,1.475)">
            <path d="M58.927,85.156C59.049,87.381 59.211,89.22 59.252,89.306C59.292,89.349 60.306,88.921 61.522,88.322C62.779,87.723 64.442,87.252 65.455,87.252L67.158,87.252L67.158,84.728C67.158,83.316 66.996,82.075 66.834,81.947C66.672,81.861 64.766,81.604 62.617,81.433L58.725,81.134L58.927,85.156Z" style="fill:rgb(58,58,60);fill-rule:nonzero;"/>
        </g>
        <g transform="matrix(1,0,0,1,0.498659,1.475)">
            <path d="M28.72,84.471L25.314,86.739L20.043,96.494C14.771,106.207 14.771,106.207 15.258,107.833C16.069,110.4 16.353,110.7 17.042,109.716C17.366,109.245 19.961,105.651 22.84,101.714C27.868,94.783 28.111,94.398 30.22,88.536C31.436,85.241 32.328,82.46 32.247,82.332C32.166,82.246 30.544,83.188 28.72,84.471Z" style="fill:rgb(58,58,60);fill-rule:nonzero;"/>
        </g>
        <g transform="matrix(1,0,0,1,0.498659,1.475)">
            <path d="M81.918,82.802C82.121,83.273 83.134,86.097 84.269,89.135C86.216,94.483 86.5,94.954 91.974,102.527C95.136,106.849 97.772,110.357 97.853,110.357C97.934,110.357 98.339,109.501 98.785,108.432L99.596,106.463L94.285,96.622L88.973,86.781L86.297,84.942C84.797,83.957 83.134,82.888 82.607,82.588C81.715,82.075 81.675,82.075 81.918,82.802Z" style="fill:rgb(58,58,60);fill-rule:nonzero;"/>
        </g>
        <g transform="matrix(1,0,0,1,0.498659,1.475)">
            <path d="M39.749,90.247L39.384,97.992L42.709,100.73C44.493,102.27 46.196,103.511 46.398,103.511C47.128,103.511 47.128,102.056 46.398,99.96C45.871,98.462 45.588,96.066 45.385,91.787L45.142,85.712L42.83,84.129C41.573,83.273 40.438,82.546 40.316,82.546C40.195,82.546 39.951,86.011 39.749,90.247Z" style="fill:rgb(58,58,60);fill-rule:nonzero;"/>
        </g>
        <g transform="matrix(1,0,0,1,0.498659,1.475)">
            <path d="M71.131,84.3L68.78,86.012L68.78,91.745C68.78,96.537 68.658,97.864 67.928,99.747C67.482,100.987 67.198,102.399 67.361,102.956C67.563,103.94 67.726,103.854 71.213,101.073L74.862,98.163L74.659,93.243C74.335,86.269 74.01,82.546 73.686,82.589C73.564,82.589 72.388,83.359 71.131,84.3Z" style="fill:rgb(58,58,60);fill-rule:nonzero;"/>
        </g>
        <g transform="matrix(1,0,0,1,0.498659,1.475)">
            <path d="M47.817,90.761C47.939,91.317 48.628,95.596 49.317,100.302L50.615,108.86L52.764,110.443C54.669,111.855 54.953,111.983 55.156,111.298C55.278,110.913 55.399,106.891 55.44,102.441C55.521,92.472 55.197,91.06 52.723,90.632C47.33,89.691 47.574,89.691 47.817,90.761Z" style="fill:rgb(58,58,60);fill-rule:nonzero;"/>
        </g>
        <g transform="matrix(1,0,0,1,0.498659,1.475)">
            <path d="M62.82,90.376L59.9,90.803L59.251,93.028C58.603,95.424 58.522,99.703 59.008,107.704L59.251,112.111L61.481,110.443L63.671,108.774L65.009,100.045C66.428,90.675 66.509,89.777 66.063,89.862C65.861,89.905 64.441,90.119 62.82,90.376Z" style="fill:rgb(58,58,60);fill-rule:nonzero;"/>
        </g>
        <g transform="matrix(1,0,0,1,0.498659,1.475)">
            <path d="M37.964,105.308C37.964,107.747 37.761,115.449 37.558,122.466L37.193,135.216L40.762,148.48C42.708,155.754 44.451,161.83 44.614,162.001C45.506,162.985 45.1,160.033 42.343,146.812L39.302,131.965L39.829,120.412C40.113,114.037 40.356,107.405 40.356,105.65C40.397,102.484 40.356,102.399 39.18,101.671L37.964,100.901L37.964,105.308Z" style="fill:rgb(58,58,60);fill-rule:nonzero;"/>
        </g>
        <g transform="matrix(1,0,0,1,0.498659,1.475)">
            <path d="M74.781,101.929L73.687,102.87L74.295,117.845L74.903,132.821L71.862,147.326C70.159,155.327 68.902,161.959 68.983,162.087C69.551,162.644 70.281,160.461 73.484,148.609L76.93,135.816L76.647,121.91C76.525,114.251 76.282,106.421 76.12,104.496L75.876,100.944L74.781,101.929Z" style="fill:rgb(58,58,60);fill-rule:nonzero;"/>
        </g>
        <g transform="matrix(1,0,0,1,0.498659,1.475)">
            <path d="M44.33,107.02C44.168,107.662 44.695,109.116 46.114,111.726C47.25,113.78 48.669,117.032 49.277,118.957L50.372,122.466L52.115,119.3C53.088,117.545 53.94,116.005 54.021,115.877C54.102,115.706 51.993,113.438 49.358,110.828C45.06,106.549 44.533,106.164 44.33,107.02Z" style="fill:rgb(58,58,60);fill-rule:nonzero;"/>
        </g>
        <g transform="matrix(1,0,0,1,0.498659,1.475)">
            <path d="M42.02,109.801L42.02,113.267L47.696,126.659C50.818,134.061 53.373,139.795 53.373,139.452C53.373,139.11 53.008,136.586 52.602,133.89C51.873,129.312 51.508,128.199 47.088,117.845C44.452,111.726 42.263,106.635 42.182,106.549C42.101,106.463 42.02,107.918 42.02,109.801Z" style="fill:rgb(58,58,60);fill-rule:nonzero;"/>
        </g>
        <g transform="matrix(1,0,0,1,0.498659,1.475)">
            <path d="M64.645,111.127L60.103,115.791L61.847,118.829C62.82,120.54 63.712,121.91 63.874,121.91C64.037,121.91 64.564,120.498 65.091,118.786C65.618,117.117 66.915,114.037 68.01,112.026C69.875,108.517 70.484,106.506 69.632,106.506C69.389,106.506 67.159,108.603 64.645,111.127Z" style="fill:rgb(58,58,60);fill-rule:nonzero;"/>
        </g>
        <g transform="matrix(1,0,0,1,0.498659,1.475)">
            <path d="M67.078,118.144C62.455,129.055 62.293,129.568 61.523,134.66C61.117,137.57 60.914,139.795 61.077,139.581C61.239,139.409 63.834,133.248 66.915,125.974C71.497,114.978 72.43,112.368 72.389,110.785C72.268,106.035 72.024,106.421 67.078,118.144Z" style="fill:rgb(58,58,60);fill-rule:nonzero;"/>
        </g>
        <g transform="matrix(1,0,0,1,0.498659,1.475)">
            <path d="M6.5,109.844C5.121,110.486 3.175,111.812 2.121,112.839C-0.677,115.577 -0.272,116.262 3.256,114.593C4.27,114.122 5.324,113.866 5.527,113.994C5.811,114.165 4.919,116.39 3.337,119.599C0.864,124.563 0.783,124.905 1.634,124.905C2.324,124.905 2.972,124.177 4.27,122.081C6.5,118.316 7.23,118.872 5.527,123.108C4.878,124.776 4.31,126.231 4.31,126.317C4.31,126.445 4.675,126.616 5.162,126.745C5.892,126.959 6.216,126.531 7.392,123.792C8.203,121.867 8.973,120.626 9.379,120.626C10.149,120.626 10.149,120.84 9.176,123.835C8.203,126.873 8.162,127.044 9.095,127.044C9.622,127.044 10.068,126.317 10.798,124.22C11.609,121.696 12.501,120.541 13.069,121.182C13.271,121.353 12.906,123.193 12.177,125.846C12.014,126.402 12.177,126.616 12.704,126.616C14.325,126.616 16.272,112.796 14.772,112.283C14.488,112.197 13.555,112.026 12.704,111.855C11.487,111.641 11.082,111.341 10.595,110.143C10.311,109.33 9.784,108.646 9.5,108.688C9.217,108.688 7.838,109.245 6.5,109.844Z" style="fill:rgb(58,58,60);fill-rule:nonzero;"/>
        </g>
        <g transform="matrix(1,0,0,1,0.498659,1.475)">
            <path d="M103.448,110.143C102.962,111.341 102.556,111.641 101.34,111.855C100.488,112.026 99.556,112.197 99.312,112.283C98.461,112.582 98.664,118.23 99.677,122.637C100.407,125.889 100.691,126.616 101.34,126.616C101.867,126.616 102.029,126.402 101.867,125.846C101.137,123.193 100.772,121.353 100.975,121.182C101.542,120.541 102.434,121.696 103.245,124.22C103.975,126.317 104.421,127.044 104.948,127.044C105.881,127.044 105.84,126.873 104.867,123.835C103.894,120.84 103.894,120.626 104.665,120.626C105.07,120.626 105.84,121.867 106.651,123.792C107.827,126.531 108.152,126.959 108.881,126.745C109.368,126.616 109.733,126.445 109.733,126.317C109.733,126.231 109.165,124.776 108.517,123.108C106.814,118.872 107.543,118.316 109.774,122.081C111.071,124.177 111.72,124.905 112.409,124.905C113.261,124.905 113.179,124.563 110.706,119.599C109.125,116.39 108.233,114.165 108.517,113.994C108.719,113.866 109.774,114.122 110.787,114.593C114.315,116.262 114.639,115.706 111.882,112.882C110.179,111.17 105.719,108.646 104.421,108.646C104.178,108.646 103.732,109.33 103.448,110.143Z" style="fill:rgb(58,58,60);fill-rule:nonzero;"/>
        </g>
        <g transform="matrix(1,0,0,1,0.498659,1.475)">
            <path d="M41.045,123.322L40.762,131.623L43.843,146.555C47.452,164.012 47.209,162.986 47.898,162.986C48.506,162.986 48.587,162.258 49.763,147.497L50.615,136.543L46.236,126.103C43.843,120.37 41.775,115.535 41.613,115.363C41.451,115.192 41.208,118.744 41.045,123.322Z" style="fill:rgb(58,58,60);fill-rule:nonzero;"/>
        </g>
        <g transform="matrix(1,0,0,1,0.498659,1.475)">
            <path d="M72.632,115.021L63.631,136.671L64.685,149.721C65.577,160.547 65.861,162.772 66.348,162.9C66.875,162.985 67.564,160.161 70.159,147.582C73.362,132.179 73.362,132.136 73.241,126.488C73.2,123.407 73.038,119.514 72.876,117.931L72.632,115.021Z" style="fill:rgb(58,58,60);fill-rule:nonzero;"/>
        </g>
        <g transform="matrix(1,0,0,1,0.498659,1.475)">
            <path d="M53.493,120.498C52.52,122.081 51.75,123.664 51.75,124.006C51.75,124.391 52.034,126.402 52.399,128.499L53.088,132.35L54.426,129.569C55.561,127.215 55.764,126.402 55.764,123.835C55.764,122.167 55.643,120.113 55.48,119.214L55.197,117.631L53.493,120.498Z" style="fill:rgb(58,58,60);fill-rule:nonzero;"/>
        </g>
        <g transform="matrix(1,0,0,1,0.498659,1.475)">
            <path d="M58.644,122.337C58.644,126.573 58.765,127.258 59.738,129.397C60.347,130.681 60.955,131.75 61.076,131.75C61.239,131.75 61.644,129.911 62.009,127.686L62.698,123.664L60.833,120.626C59.819,119 58.927,117.631 58.846,117.631C58.725,117.631 58.644,119.727 58.644,122.337Z" style="fill:rgb(58,58,60);fill-rule:nonzero;"/>
        </g>
        <g transform="matrix(1,0,0,1,0.498659,1.475)">
            <path d="M51.629,140.993C50.899,146.94 49.642,162.172 49.845,162.686C50.048,163.285 52.846,164.996 53.129,164.654C53.251,164.568 53.9,162.087 54.63,159.177L55.968,153.914L54.427,147.411C53.616,143.859 52.683,140.479 52.4,139.923C51.872,138.939 51.872,139.024 51.629,140.993Z" style="fill:rgb(58,58,60);fill-rule:nonzero;"/>
        </g>
        <g transform="matrix(1,0,0,1,0.498659,1.475)">
            <path d="M61.563,140.608C61.32,141.292 60.468,144.544 59.657,147.924L58.238,154L59.211,157.765C59.739,159.819 60.387,162.301 60.631,163.285L61.117,165.082L62.942,163.927C64.685,162.857 64.766,162.686 64.564,161.274C64.483,160.461 63.955,155.198 63.469,149.593C62.942,144.031 62.415,139.453 62.252,139.453C62.09,139.453 61.806,139.966 61.563,140.608Z" style="fill:rgb(58,58,60);fill-rule:nonzero;"/>
        </g>
        <g transform="matrix(1,0,0,1,0.498659,1.475)">
            <path d="M42.02,167.307L42.02,171.799L43.722,172.27C44.696,172.527 45.507,172.698 45.547,172.655C45.75,172.484 42.749,163.67 42.344,163.199C42.182,162.985 42.02,164.825 42.02,167.307Z" style="fill:rgb(58,58,60);fill-rule:nonzero;"/>
        </g>
        <g transform="matrix(1,0,0,1,0.498659,1.475)">
            <path d="M71.375,164.269C71.132,165.082 70.361,167.392 69.672,169.361C68.415,172.869 68.415,172.912 69.307,172.612C69.794,172.441 70.686,172.227 71.334,172.099C72.348,171.885 72.429,171.757 72.389,169.66C72.348,168.462 72.226,166.408 72.105,165.125L71.821,162.771L71.375,164.269Z" style="fill:rgb(58,58,60);fill-rule:nonzero;"/>
        </g>
        <g transform="matrix(1,0,0,1,0.498659,1.475)">
            <path d="M45.466,167.264C45.263,168.291 45.425,168.805 46.236,169.874C46.804,170.602 47.372,171.714 47.534,172.313C48.102,175.266 48.385,176.036 48.953,176.164C49.399,176.25 49.723,175.394 50.291,172.527C50.697,170.473 51.061,168.163 51.102,167.478L51.143,166.195L48.426,166.066L45.75,165.938L45.466,167.264Z" style="fill:rgb(58,58,60);fill-rule:nonzero;"/>
        </g>
        <g transform="matrix(1,0,0,1,0.498659,1.475)">
            <path d="M63.145,166.537C62.82,167.008 62.901,167.992 63.509,170.473C63.955,172.313 64.32,174.11 64.32,174.495C64.32,175.608 64.929,176.292 65.618,176.036C66.023,175.865 66.348,174.966 66.51,173.597C66.713,172.228 67.159,170.944 67.807,170.131C68.416,169.361 68.781,168.377 68.781,167.435L68.781,165.981L66.186,165.981C64.523,165.981 63.469,166.195 63.145,166.537Z" style="fill:rgb(58,58,60);fill-rule:nonzero;"/>
        </g>
        <g transform="matrix(1,0,0,1,0.498659,1.475)">
            <path d="M54.224,168.12C53.94,169.19 52.926,171.586 52.034,173.468C50.372,176.934 50.21,178.046 50.859,181.384C51.183,182.839 51.183,182.839 52.318,179.458C52.926,177.576 53.9,175.223 54.427,174.238C55.359,172.57 55.4,172.142 55.116,169.318L54.792,166.194L54.224,168.12Z" style="fill:rgb(58,58,60);fill-rule:nonzero;"/>
        </g>
        <g transform="matrix(1,0,0,1,0.498659,1.475)">
            <path d="M59.09,169.532C59.049,172.313 59.211,173.212 60.022,174.666C60.549,175.651 61.401,177.747 61.928,179.33C62.414,180.956 62.982,182.24 63.144,182.24C63.266,182.24 63.509,181.127 63.672,179.758C63.915,177.405 63.834,177.02 61.969,172.784C60.874,170.345 59.779,167.863 59.536,167.264C59.171,166.366 59.09,166.751 59.09,169.532Z" style="fill:rgb(58,58,60);fill-rule:nonzero;"/>
        </g>
        <g transform="matrix(1,0,0,1,0.498659,1.475)">
            <path d="M43.641,175.223C43.641,175.437 43.114,179.33 42.465,183.866L41.249,192.081L44.898,205.858C46.885,213.432 48.629,219.764 48.791,219.935C48.994,220.106 50.007,220.62 51.061,221.133C52.805,221.903 53.008,221.946 52.805,221.262C52.683,220.876 51.791,217.325 50.778,213.389L48.994,206.243L48.71,196.274L48.385,186.304L46.399,181.17C44.25,175.736 43.682,174.452 43.641,175.223Z" style="fill:rgb(58,58,60);fill-rule:nonzero;"/>
        </g>
        <g transform="matrix(1,0,0,1,0.498659,1.475)">
            <path d="M68.01,180.828L65.861,186.262L65.536,196.573L65.212,206.842L63.347,214.03C62.333,218.01 61.481,221.433 61.481,221.647C61.481,221.86 62.455,221.518 63.63,220.919L65.82,219.764L69.388,205.986L72.956,192.166L71.78,183.78C71.172,179.159 70.524,175.394 70.402,175.394C70.24,175.394 69.185,177.832 68.01,180.828Z" style="fill:rgb(58,58,60);fill-rule:nonzero;"/>
        </g>
        <g transform="matrix(1,0,0,1,0.498659,1.475)">
            <path d="M52.602,182.753C50.615,193.322 50.372,203.462 51.912,212.191L52.886,217.539L52.926,209.667C52.967,202.478 53.048,201.58 53.98,198.884C54.589,197.13 55.075,194.477 55.237,192.209C55.44,188.915 55.359,187.973 54.426,184.636C53.859,182.54 53.291,180.742 53.21,180.657C53.129,180.529 52.845,181.47 52.602,182.753Z" style="fill:rgb(58,58,60);fill-rule:nonzero;"/>
        </g>
        <g transform="matrix(1,0,0,1,0.498659,1.475)">
            <path d="M59.941,184.122C58.603,189.513 58.684,194.348 60.265,198.841C61.401,202.178 61.482,202.734 61.522,209.324L61.563,216.255L62.536,210.907C63.387,206.157 63.468,204.788 63.225,198.498C63.022,191.653 61.928,182.582 61.198,181.212C60.914,180.699 60.59,181.469 59.941,184.122Z" style="fill:rgb(58,58,60);fill-rule:nonzero;"/>
        </g>
        <g transform="matrix(1,0,0,1,0.498659,1.475)">
            <path d="M51.953,223.487C50.858,224.043 49.52,224.941 49.074,225.498C47.371,227.466 44.857,232.301 44.857,233.584C44.857,234.697 45.02,234.868 46.398,235.125C47.209,235.296 48.466,235.681 49.196,236.023C50.98,236.793 51.345,236.751 51.345,235.724C51.345,234.526 52.034,234.654 52.318,235.938C52.521,236.708 52.845,237.007 53.575,237.007C54.102,237.007 54.67,236.793 54.832,236.537C55.4,235.553 55.846,225.326 55.359,223.872C54.873,222.203 54.629,222.203 51.953,223.487Z" style="fill:rgb(58,58,60);fill-rule:nonzero;"/>
        </g>
        <g transform="matrix(1,0,0,1,0.498659,1.475)">
            <path d="M59.049,223.529C58.522,225.027 58.522,232.129 59.089,234.868C59.454,236.708 59.657,237.007 60.508,237.007C61.198,237.007 61.603,236.665 61.887,235.938C62.374,234.526 63.063,234.568 62.779,235.938L62.617,237.05L64.766,236.194C65.982,235.766 67.442,235.253 68.091,235.125C70.199,234.611 69.307,231.188 65.617,225.968C64.725,224.727 62.738,223.486 60.306,222.674C59.616,222.46 59.373,222.631 59.049,223.529Z" style="fill:rgb(58,58,60);fill-rule:nonzero;"/>
        </g>
    </g>
</svg>
