<?xml version="1.0" encoding="UTF-8" standalone="no"?>
<!DOCTYPE svg PUBLIC "-//W3C//DTD SVG 1.1//EN" "http://www.w3.org/Graphics/SVG/1.1/DTD/svg11.dtd">
<svg width="100%" height="100%" viewBox="0 0 115 240" version="1.1" xmlns="http://www.w3.org/2000/svg" xmlns:xlink="http://www.w3.org/1999/xlink" xml:space="preserve" xmlns:serif="http://www.serif.com/" style="fill-rule:evenodd;clip-rule:evenodd;stroke-linejoin:round;stroke-miterlimit:2;">
    <g id="back">
        <g transform="matrix(1,0,0,1,0.499875,1.47401)">
            <path d="M42.538,164.978C42.538,166.091 42.055,168.618 41.492,170.588C40.688,173.415 40.366,175.941 39.964,182.408L39.441,190.587L41.412,194.827L43.423,199.067L44.468,197.953L45.514,196.84L44.83,192.001C44.307,188.018 44.227,185.106 44.428,175.684C44.669,164.764 44.629,164.207 43.905,163.608C42.699,162.665 42.538,162.837 42.538,164.978Z" style="fill:rgb(255,0,0);fill-rule:nonzero;"/>
        </g>
        <g transform="matrix(1,0,0,1,0.499875,1.47401)">
            <path d="M70.126,163.608C69.402,164.164 69.402,164.807 69.603,175.47C69.764,184.463 69.684,187.761 69.161,191.786L68.518,196.797L69.563,197.953L70.649,199.067L72.579,194.827L74.55,190.587L74.027,182.365C73.625,175.856 73.303,173.372 72.499,170.545C71.936,168.575 71.494,166.091 71.494,164.978C71.494,162.837 71.333,162.665 70.126,163.608Z" style="fill:rgb(255,0,0);fill-rule:nonzero;"/>
        </g>
        <g transform="matrix(1,0,0,1,0.499875,1.47401)">
            <path d="M46.359,180.481C46.519,190.502 46.761,194.998 47.082,195.512C47.364,195.898 48.409,197.225 49.415,198.424L51.305,200.651L52.391,198.852C54.08,196.112 54.2,191.829 52.793,183.692C51.707,177.568 51.546,177.097 48.892,171.744L46.117,166.177L46.359,180.481Z" style="fill:rgb(255,0,0);fill-rule:nonzero;"/>
        </g>
        <g transform="matrix(1,0,0,1,0.499875,1.47401)">
            <path d="M64.938,172.087C62.445,177.312 62.163,178.168 61.238,183.522C59.67,192.558 59.911,196.626 62.163,199.666L62.847,200.609L65.099,197.782L67.391,194.956L67.672,182.494C67.833,175.642 67.874,169.218 67.793,168.233L67.672,166.434L64.938,172.087Z" style="fill:rgb(255,0,0);fill-rule:nonzero;"/>
        </g>
    </g>
</svg>
