<?xml version="1.0" encoding="UTF-8" standalone="no"?>
<!DOCTYPE svg PUBLIC "-//W3C//DTD SVG 1.1//EN" "http://www.w3.org/Graphics/SVG/1.1/DTD/svg11.dtd">
<svg width="100%" height="100%" viewBox="0 0 115 240" version="1.1" xmlns="http://www.w3.org/2000/svg" xmlns:xlink="http://www.w3.org/1999/xlink" xml:space="preserve" xmlns:serif="http://www.serif.com/" style="fill-rule:evenodd;clip-rule:evenodd;stroke-linejoin:round;stroke-miterlimit:2;">
    <g id="back">
        <g transform="matrix(1,0,0,1,0.499875,1.47401)">
            <path d="M25.125,81.598C23.637,83.911 23.637,83.996 23.637,88.279C23.637,92.433 23.597,92.733 21.627,97.872C20.541,100.784 19.656,103.225 19.737,103.268C19.817,103.353 21.466,101.383 23.396,98.857C26.654,94.703 27.136,93.846 29.107,88.707C30.233,85.624 31.117,83.011 31.037,82.926C30.956,82.84 30.635,83.011 30.313,83.268C29.107,84.339 27.981,83.654 27.257,81.384L26.573,79.286L25.125,81.598Z" style="fill:rgb(255,0,0);fill-rule:nonzero;"/>
        </g>
        <g transform="matrix(1,0,0,1,0.499875,1.47401)">
            <path d="M86.734,81.47C86.091,83.654 84.925,84.339 83.718,83.268C83.397,83.011 83.075,82.84 82.994,82.926C82.914,83.011 83.799,85.624 84.925,88.707C86.895,93.846 87.378,94.703 90.635,98.857C92.566,101.383 94.214,103.353 94.295,103.268C94.375,103.225 93.531,100.827 92.405,97.957C90.434,92.904 90.394,92.647 90.394,88.493C90.394,84.296 90.354,84.125 88.986,81.812C88.182,80.528 87.498,79.457 87.418,79.457C87.378,79.457 87.056,80.356 86.734,81.47Z" style="fill:rgb(255,0,0);fill-rule:nonzero;"/>
        </g>
        <g transform="matrix(1,0,0,1,0.499875,1.47401)">
            <path d="M19.937,82.583C18.53,83.911 18.369,84.339 16.358,92.518C14.749,99.156 13.945,101.768 12.698,104.081L11.09,107.079L12.055,108.92C12.578,109.948 13.181,110.976 13.463,111.233C13.825,111.533 14.91,109.563 17.725,103.567L21.546,95.516L22.028,90.077C22.511,84.981 22.39,81.898 21.707,81.427C21.546,81.341 20.741,81.855 19.937,82.583Z" style="fill:rgb(255,0,0);fill-rule:nonzero;"/>
        </g>
        <g transform="matrix(1,0,0,1,0.499875,1.47401)">
            <path d="M91.963,82.326C91.601,83.225 91.641,85.024 91.963,89.478L92.445,95.43L96.266,103.524C99.121,109.563 100.207,111.533 100.569,111.233C100.85,110.976 101.453,109.948 101.976,108.92L102.941,107.079L101.333,104.081C100.086,101.768 99.242,99.113 97.593,92.39C95.502,83.868 95.421,83.653 93.933,82.412L92.405,81.084L91.963,82.326Z" style="fill:rgb(255,0,0);fill-rule:nonzero;"/>
        </g>
    </g>
</svg>
