<?xml version="1.0" encoding="UTF-8" standalone="no"?>
<!DOCTYPE svg PUBLIC "-//W3C//DTD SVG 1.1//EN" "http://www.w3.org/Graphics/SVG/1.1/DTD/svg11.dtd">
<svg width="100%" height="100%" viewBox="0 0 115 240" version="1.1" xmlns="http://www.w3.org/2000/svg" xmlns:xlink="http://www.w3.org/1999/xlink" xml:space="preserve" xmlns:serif="http://www.serif.com/" style="fill-rule:evenodd;clip-rule:evenodd;stroke-linejoin:round;stroke-miterlimit:2;">
    <g id="back">
        <g transform="matrix(1,0,0,1,0.499875,1.47401)">
            <path d="M45.555,102.796C42.096,104.338 41.775,104.681 39.04,110.205C37.793,112.774 37.713,113.16 37.713,117.357C37.713,120.868 37.914,122.367 38.557,124.294C39.04,125.665 39.603,127.206 39.764,127.72C40.086,128.62 40.246,128.491 42.539,125.965C44.67,123.609 45.635,122.924 50.381,120.569L55.81,117.871L55.81,114.145C55.81,108.449 55.609,107.892 53.196,106.179C51.708,105.109 50.903,104.21 50.461,102.968C50.139,102.068 49.617,101.297 49.295,101.34C49.013,101.34 47.324,102.025 45.555,102.796Z" style="fill:rgb(255,0,0);fill-rule:nonzero;"/>
        </g>
        <g transform="matrix(1,0,0,1,0.499875,1.47401)">
            <path d="M63.49,103.096C62.927,104.466 62.243,105.28 60.715,106.222C59.589,106.907 58.584,107.892 58.463,108.363C58.342,108.835 58.222,111.147 58.222,113.545L58.222,117.871L63.691,120.611C68.557,123.01 69.442,123.652 71.533,126.05C73.785,128.62 73.946,128.705 74.268,127.763C76.399,121.682 76.399,121.596 76.278,116.843L76.117,112.218L73.906,108.192L71.694,104.209L68.316,102.753C66.426,101.94 64.737,101.297 64.576,101.297C64.375,101.297 63.892,102.111 63.49,103.096Z" style="fill:rgb(255,0,0);fill-rule:nonzero;"/>
        </g>
    </g>
</svg>
