<?xml version="1.0" encoding="UTF-8" standalone="no"?>
<!DOCTYPE svg PUBLIC "-//W3C//DTD SVG 1.1//EN" "http://www.w3.org/Graphics/SVG/1.1/DTD/svg11.dtd">
<svg width="100%" height="100%" viewBox="0 0 115 240" version="1.1" xmlns="http://www.w3.org/2000/svg" xmlns:xlink="http://www.w3.org/1999/xlink" xml:space="preserve" xmlns:serif="http://www.serif.com/" style="fill-rule:evenodd;clip-rule:evenodd;stroke-linejoin:round;stroke-miterlimit:2;">
    <g id="back">
        <g transform="matrix(1,0,0,1,0.499875,1.47401)">
            <path d="M47.445,124.552C46.48,125.065 45.635,125.836 45.555,126.35C45.434,126.821 44.911,130.162 44.308,133.802L43.263,140.354L43.906,148.662L44.55,157.013L47.204,164.079C48.692,167.976 49.938,171.102 49.979,171.017C50.059,170.931 50.662,169.432 51.386,167.676L52.673,164.464L52.15,157.398C51.788,151.874 51.386,149.304 50.381,145.621C49.134,140.953 49.134,140.825 49.416,134.701C49.818,126.35 49.818,123.567 49.496,123.609C49.295,123.609 48.41,124.038 47.445,124.552Z" style="fill:rgb(255,0,0);fill-rule:nonzero;"/>
        </g>
        <g transform="matrix(1,0,0,1,0.499875,1.47401)">
            <path d="M64.295,126.65C64.335,128.363 64.456,132.26 64.617,135.343C64.858,140.739 64.858,141.039 63.611,145.407C62.646,149.005 62.284,151.403 61.882,157.184L61.359,164.464L62.646,167.676C63.37,169.432 63.973,170.931 64.054,171.017C64.094,171.102 65.341,167.976 66.829,164.079L69.483,157.013L70.086,148.705L70.73,140.397L69.684,133.802C69.121,130.162 68.598,126.821 68.477,126.35C68.357,125.622 65.341,123.567 64.456,123.567C64.335,123.567 64.255,124.98 64.295,126.65Z" style="fill:rgb(255,0,0);fill-rule:nonzero;"/>
        </g>
        <g transform="matrix(1,0,0,1,0.499875,1.47401)">
            <path d="M41.332,129.605C40.568,130.119 39.844,130.59 39.764,130.675C39.683,130.761 38.959,134.358 38.155,138.641L36.667,146.478L37.954,150.889C38.879,154.015 39.321,156.584 39.522,159.839C40.005,167.119 40.166,167.205 41.774,160.696L43.182,154.957L42.176,151.788L41.211,148.619L42.096,139.412C42.579,134.358 43.101,129.862 43.182,129.433C43.463,128.491 43.061,128.491 41.332,129.605Z" style="fill:rgb(255,0,0);fill-rule:nonzero;"/>
        </g>
        <g transform="matrix(1,0,0,1,0.499875,1.47401)">
            <path d="M70.85,129.862C70.97,130.547 71.453,135.044 71.936,139.883L72.82,148.662L71.815,151.874L70.85,155.043L72.257,160.824C73.866,167.291 73.986,167.248 74.469,159.668C74.63,156.842 75.153,154.015 75.997,151.06L77.284,146.606L75.957,139.069C75.193,134.915 74.55,131.275 74.429,131.061C74.308,130.633 71.373,128.706 70.89,128.706C70.729,128.706 70.729,129.219 70.85,129.862Z" style="fill:rgb(255,0,0);fill-rule:nonzero;"/>
        </g>
    </g>
</svg>
