<?xml version="1.0" encoding="UTF-8" standalone="no"?>
<!DOCTYPE svg PUBLIC "-//W3C//DTD SVG 1.1//EN" "http://www.w3.org/Graphics/SVG/1.1/DTD/svg11.dtd">
<svg width="100%" height="100%" viewBox="0 0 115 240" version="1.1" xmlns="http://www.w3.org/2000/svg" xmlns:xlink="http://www.w3.org/1999/xlink" xml:space="preserve" xmlns:serif="http://www.serif.com/" style="fill-rule:evenodd;clip-rule:evenodd;stroke-linejoin:round;stroke-miterlimit:2;">
    <g id="back">
        <g transform="matrix(1,0,0,1,0.499875,1.47401)">
            <path d="M29.066,45.026L26.452,49.394L26.935,52.435C27.216,54.105 27.538,55.432 27.699,55.389C28.061,55.218 38.476,42.499 38.517,42.157C38.517,42.028 36.989,41.643 35.098,41.3L31.72,40.658L29.066,45.026Z" style="fill:rgb(255,0,0);fill-rule:nonzero;"/>
        </g>
        <g transform="matrix(1,0,0,1,0.499875,1.47401)">
            <path d="M78.048,41.514C76.922,41.771 75.877,42.114 75.756,42.242C75.515,42.499 85.649,55.132 86.252,55.346C86.453,55.432 86.815,54.105 87.057,52.434L87.499,49.351L84.925,45.154C82.07,40.443 82.231,40.529 78.048,41.514Z" style="fill:rgb(255,0,0);fill-rule:nonzero;"/>
        </g>
    </g>
</svg>
