<?xml version="1.0" encoding="UTF-8" standalone="no"?>
<!DOCTYPE svg PUBLIC "-//W3C//DTD SVG 1.1//EN" "http://www.w3.org/Graphics/SVG/1.1/DTD/svg11.dtd">
<svg width="100%" height="100%" viewBox="0 0 115 240" version="1.1" xmlns="http://www.w3.org/2000/svg" xmlns:xlink="http://www.w3.org/1999/xlink" xml:space="preserve" xmlns:serif="http://www.serif.com/" style="fill-rule:evenodd;clip-rule:evenodd;stroke-linejoin:round;stroke-miterlimit:2;">
    <g id="back">
        <g transform="matrix(1,0,0,1,0.499875,1.47401)">
            <path d="M54.925,20.101C55.006,21.386 54.885,23.099 54.644,23.913C54.241,25.112 54.282,25.626 54.684,26.311C55.448,27.596 55.609,27.467 56.091,25.155C56.735,21.9 56.132,17.789 55.006,17.789C54.885,17.789 54.804,18.817 54.925,20.101Z" style="fill:rgb(255,0,0);fill-rule:nonzero;"/>
        </g>
        <g transform="matrix(1,0,0,1,0.499875,1.47401)">
            <path d="M58.344,18.303C57.7,19.159 57.459,22.971 57.901,25.155C58.344,27.424 58.585,27.639 59.349,26.354C59.751,25.669 59.751,25.112 59.389,23.827C59.148,22.928 58.987,21.215 59.067,20.016C59.228,17.746 59.027,17.36 58.344,18.303Z" style="fill:rgb(255,0,0);fill-rule:nonzero;"/>
        </g>
        <g transform="matrix(1,0,0,1,0.499875,1.47401)">
            <path d="M47.726,31.536C44.75,33.891 42.297,35.99 42.217,36.161C42.176,36.332 43.504,36.632 45.233,36.803C46.922,36.932 49.657,37.446 51.305,37.96C52.954,38.431 54.362,38.773 54.442,38.645C54.523,38.559 54.724,36.461 54.844,33.977C55.086,30.123 55.005,29.352 54.402,28.367C54.04,27.725 53.557,27.211 53.437,27.211C53.276,27.211 50.702,29.138 47.726,31.536Z" style="fill:rgb(255,0,0);fill-rule:nonzero;"/>
        </g>
        <g transform="matrix(1,0,0,1,0.499875,1.47401)">
            <path d="M59.63,28.367C59.027,29.352 58.946,30.166 59.148,33.977C59.268,36.418 59.469,38.516 59.59,38.645C59.67,38.731 61.078,38.431 62.727,37.96C64.376,37.446 67.11,36.932 68.799,36.803C70.528,36.632 71.856,36.332 71.815,36.161C71.654,35.733 60.997,27.211 60.595,27.211C60.475,27.211 59.992,27.725 59.63,28.367Z" style="fill:rgb(255,0,0);fill-rule:nonzero;"/>
        </g>
        <g transform="matrix(1,0,0,1,0.499875,1.47401)">
            <path d="M39.924,37.96C38.839,38.174 37.27,38.474 36.506,38.602C35.139,38.859 35.219,38.902 38.718,40.272L42.337,41.685L44.549,47.681L46.761,53.719L50.702,57.659L54.683,61.642L54.402,52.006C54.241,46.739 54,42.285 53.839,42.157C53.598,41.9 42.176,37.446 42.016,37.531C41.975,37.574 41.051,37.746 39.924,37.96Z" style="fill:rgb(255,0,0);fill-rule:nonzero;"/>
        </g>
        <g transform="matrix(1,0,0,1,0.499875,1.47401)">
            <path d="M66.065,39.716C62.968,40.872 60.314,41.985 60.193,42.157C60.032,42.285 59.791,46.739 59.63,52.049L59.349,61.642L63.29,57.659L67.271,53.676L71.695,41.6L75.314,40.229C79.215,38.773 79.215,38.773 74.711,38.131C73.705,37.96 72.62,37.788 72.298,37.703C71.976,37.617 69.161,38.516 66.065,39.716Z" style="fill:rgb(255,0,0);fill-rule:nonzero;"/>
        </g>
    </g>
</svg>
