<?xml version="1.0" encoding="UTF-8" standalone="no"?>
<!DOCTYPE svg PUBLIC "-//W3C//DTD SVG 1.1//EN" "http://www.w3.org/Graphics/SVG/1.1/DTD/svg11.dtd">
<svg width="100%" height="100%" viewBox="0 0 33 43" version="1.1" xmlns="http://www.w3.org/2000/svg" xmlns:xlink="http://www.w3.org/1999/xlink" xml:space="preserve" xmlns:serif="http://www.serif.com/" style="fill-rule:evenodd;clip-rule:evenodd;stroke-linejoin:round;stroke-miterlimit:2;">
    <g transform="matrix(1,0,0,1,-23.4606,-42.9447)">
        <g id="front">
            <g transform="matrix(1,0,0,1,0.498659,1.475)">
                <path d="M29.612,44.679L27.301,47.888L27.382,51.61C27.422,53.664 27.504,55.418 27.585,55.461C27.625,55.547 28.396,53.75 29.288,51.482C30.788,47.674 31.031,47.246 33.829,44.807C37.073,41.898 37.073,41.47 33.829,41.47C31.923,41.47 31.883,41.47 29.612,44.679Z" style="fill:rgb(58,58,60);fill-rule:nonzero;"/>
            </g>
            <g transform="matrix(1,0,0,1,0.498659,1.475)">
                <path d="M44.533,41.77C44.006,41.983 39.829,50.413 40.073,50.712C40.194,50.798 43.641,51.397 47.817,52.081L55.4,53.279L55.4,50.669C55.4,49.215 55.278,47.161 55.156,46.091L54.913,44.166L50.777,42.796C46.804,41.513 45.628,41.299 44.533,41.77Z" style="fill:rgb(58,58,60);fill-rule:nonzero;"/>
            </g>
            <g transform="matrix(1,0,0,1,0.498659,1.475)">
                <path d="M35.573,44.85C32.572,47.674 32.288,48.059 30.91,51.782C30.099,53.921 29.491,55.761 29.531,55.847C29.612,55.932 31.478,55.034 33.627,53.836L37.56,51.696L39.79,47.032C41.006,44.422 42.02,42.24 42.02,42.112C42.02,41.984 41.29,41.898 40.398,41.898C38.979,41.898 38.411,42.24 35.573,44.85Z" style="fill:rgb(58,58,60);fill-rule:nonzero;"/>
            </g>
            <g transform="matrix(1,0,0,1,0.498659,1.475)">
                <path d="M37.437,53.493C36.626,54.22 36.018,54.948 36.14,55.119C36.221,55.333 38.491,56.83 41.167,58.542L46.033,61.623L50.777,60.767C53.372,60.296 55.602,59.826 55.683,59.697C55.805,59.612 55.764,58.456 55.602,57.13C55.359,55.162 55.156,54.691 54.426,54.52C52.034,54.006 40.762,52.167 39.91,52.167C39.383,52.167 38.289,52.766 37.437,53.493Z" style="fill:rgb(58,58,60);fill-rule:nonzero;"/>
            </g>
            <g transform="matrix(1,0,0,1,0.498659,1.475)">
                <path d="M31.234,57.472L29.166,58.456L27.706,64.746C26.084,71.506 26.003,72.448 26.652,75.657L27.057,77.796L29.328,76.256C31.274,74.886 31.801,74.202 33.342,70.907C34.721,68.041 35.248,66.243 35.775,62.992L36.383,58.798L35.086,57.6C34.356,56.959 33.626,56.445 33.504,56.488C33.383,56.488 32.369,56.959 31.234,57.472Z" style="fill:rgb(255,0,0);fill-rule:nonzero;"/>
            </g>
            <g transform="matrix(1,0,0,1,0.498659,1.475)">
                <path d="M37.964,59.526C37.964,59.825 37.843,60.51 37.721,61.023C37.437,62.179 38.613,62.649 40.195,62.008L41.33,61.537L39.951,60.296C38.41,58.927 37.964,58.756 37.964,59.526Z" style="fill:rgb(58,58,60);fill-rule:nonzero;"/>
            </g>
            <g transform="matrix(1,0,0,1,0.498659,1.475)">
                <path d="M24.908,63.291L22.962,66.201L22.962,70.094C22.962,73.86 23.003,74.074 24.462,76.341C25.273,77.668 26.003,78.609 26.084,78.524C26.165,78.438 25.962,76.641 25.598,74.544C24.949,70.822 24.949,70.693 25.962,65.687C26.53,62.863 26.976,60.51 26.895,60.467C26.854,60.425 25.962,61.708 24.908,63.291Z" style="fill:rgb(255,0,0);fill-rule:nonzero;"/>
            </g>
            <g transform="matrix(1,0,0,1,0.498659,1.475)">
                <path d="M41.613,62.222C41.167,62.778 41.411,62.992 42.992,63.762C44.736,64.575 45.668,64.575 45.668,63.762C45.668,63.462 42.789,61.58 42.303,61.58C42.222,61.58 41.897,61.879 41.613,62.222Z" style="fill:rgb(58,58,60);fill-rule:nonzero;"/>
            </g>
            <g transform="matrix(1,0,0,1,0.498659,1.475)">
                <path d="M37.397,64.189C36.991,66.414 37.072,66.628 38.978,67.27C39.992,67.655 40.803,67.869 40.803,67.741C40.803,67.185 39.181,64.275 38.451,63.591C37.681,62.863 37.64,62.863 37.397,64.189Z" style="fill:rgb(58,58,60);fill-rule:nonzero;"/>
            </g>
            <g transform="matrix(1,0,0,1,0.498659,1.475)">
                <path d="M40.398,64.618C40.398,65.131 41.249,66.629 42.303,67.912L44.209,70.265L44.777,68.468C45.101,67.484 45.263,66.629 45.223,66.543C44.087,65.73 40.884,63.719 40.681,63.719C40.519,63.719 40.398,64.147 40.398,64.618Z" style="fill:rgb(58,58,60);fill-rule:nonzero;"/>
            </g>
            <g transform="matrix(1,0,0,1,0.498659,1.475)">
                <path d="M51.182,64.96C47.087,66.415 46.276,67.399 46.763,70.266L47.087,72.277L49.358,70.822C50.615,70.009 52.399,69.239 53.331,69.068C54.669,68.854 54.994,68.597 54.994,67.87C54.994,67.356 55.115,66.201 55.237,65.302C55.561,63.377 55.521,63.377 51.182,64.96Z" style="fill:rgb(58,58,60);fill-rule:nonzero;"/>
            </g>
            <g transform="matrix(1,0,0,1,0.498659,1.475)">
                <path d="M38.37,68.64C38.37,68.768 39.505,70.394 40.925,72.277C43.641,75.999 43.925,75.999 44.006,72.277C44.047,70.908 43.844,70.694 42.019,69.581C40.195,68.554 38.37,68.084 38.37,68.64Z" style="fill:rgb(58,58,60);fill-rule:nonzero;"/>
            </g>
            <g transform="matrix(1,0,0,1,0.498659,1.475)">
                <path d="M37.153,70.608C37.153,71.293 37.437,73.218 37.802,74.801C38.329,77.326 38.694,78.053 40.519,80.15C41.695,81.476 42.871,82.546 43.154,82.546C43.479,82.546 43.641,81.818 43.641,80.449C43.641,78.695 43.438,78.053 42.262,76.641C41.532,75.657 40.194,73.646 39.343,72.106C38.491,70.565 37.64,69.282 37.478,69.282C37.316,69.282 37.153,69.881 37.153,70.608Z" style="fill:rgb(58,58,60);fill-rule:nonzero;"/>
            </g>
            <g transform="matrix(1,0,0,1,0.498659,1.475)">
                <path d="M51.061,72.833L47.29,74.544L47.29,77.069C47.29,78.438 47.371,79.55 47.493,79.55C47.574,79.55 48.263,79.251 48.993,78.951C49.723,78.609 51.345,78.181 52.602,78.053L54.872,77.796L55.116,74.715C55.278,73.047 55.237,71.506 55.075,71.378C54.913,71.25 53.088,71.891 51.061,72.833Z" style="fill:rgb(58,58,60);fill-rule:nonzero;"/>
            </g>
            <g transform="matrix(1,0,0,1,0.498659,1.475)">
                <path d="M29.044,79.123C26.774,81.775 25.8,83.188 25.963,83.658C26.125,84.129 26.368,84.214 26.733,83.958C26.976,83.701 28.233,82.76 29.531,81.775C31.599,80.192 31.842,79.807 32.247,77.796C32.491,76.555 32.653,75.486 32.572,75.4C32.45,75.315 30.909,76.983 29.044,79.123Z" style="fill:rgb(58,58,60);fill-rule:nonzero;"/>
            </g>
        </g>
    </g>
</svg>
