<?xml version="1.0" encoding="UTF-8" standalone="no"?>
<!DOCTYPE svg PUBLIC "-//W3C//DTD SVG 1.1//EN" "http://www.w3.org/Graphics/SVG/1.1/DTD/svg11.dtd">
<svg width="100%" height="100%" viewBox="0 0 40 54" version="1.1" xmlns="http://www.w3.org/2000/svg" xmlns:xlink="http://www.w3.org/1999/xlink" xml:space="preserve" xmlns:serif="http://www.serif.com/" style="fill-rule:evenodd;clip-rule:evenodd;stroke-linejoin:round;stroke-miterlimit:2;">
    <g transform="matrix(1,0,0,1,-37.652,-60.5445)">
        <g id="front">
            <g transform="matrix(1,0,0,1,0.498659,1.475)">
                <path d="M37.964,59.526C37.964,59.825 37.843,60.51 37.721,61.023C37.437,62.179 38.613,62.649 40.195,62.008L41.33,61.537L39.951,60.296C38.41,58.927 37.964,58.756 37.964,59.526Z" style="fill:rgb(255,0,0);fill-rule:nonzero;"/>
            </g>
            <g transform="matrix(1,0,0,1,0.498659,1.475)">
                <path d="M74.417,60.211L73.038,61.494L74.133,62.008C75.512,62.692 76.485,62.307 76.485,61.066C76.485,59.055 75.876,58.841 74.417,60.211Z" style="fill:rgb(255,0,0);fill-rule:nonzero;"/>
            </g>
            <g transform="matrix(1,0,0,1,0.498659,1.475)">
                <path d="M41.613,62.222C41.167,62.778 41.411,62.992 42.992,63.762C44.736,64.575 45.668,64.575 45.668,63.762C45.668,63.462 42.789,61.58 42.303,61.58C42.222,61.58 41.897,61.879 41.613,62.222Z" style="fill:rgb(255,0,0);fill-rule:nonzero;"/>
            </g>
            <g transform="matrix(1,0,0,1,0.498659,1.475)">
                <path d="M69.875,62.607C68.618,63.42 68.456,63.676 68.902,64.104C69.348,64.489 69.916,64.404 71.416,63.719C73.038,62.992 73.241,62.735 72.835,62.222C72.146,61.366 71.7,61.409 69.875,62.607Z" style="fill:rgb(255,0,0);fill-rule:nonzero;"/>
            </g>
            <g transform="matrix(1,0,0,1,0.498659,1.475)">
                <path d="M37.397,64.189C36.991,66.414 37.072,66.628 38.978,67.27C39.992,67.655 40.803,67.869 40.803,67.741C40.803,67.185 39.181,64.275 38.451,63.591C37.681,62.863 37.64,62.863 37.397,64.189Z" style="fill:rgb(255,0,0);fill-rule:nonzero;"/>
            </g>
            <g transform="matrix(1,0,0,1,0.498659,1.475)">
                <path d="M75.593,63.591C74.863,64.49 73.647,66.929 73.647,67.528C73.647,67.784 74.417,67.656 75.431,67.314C77.215,66.672 77.215,66.629 77.012,65.089C76.728,63.035 76.363,62.65 75.593,63.591Z" style="fill:rgb(255,0,0);fill-rule:nonzero;"/>
            </g>
            <g transform="matrix(1,0,0,1,0.498659,1.475)">
                <path d="M40.398,64.618C40.398,65.131 41.249,66.629 42.303,67.912L44.209,70.265L44.777,68.468C45.101,67.484 45.263,66.629 45.223,66.543C44.087,65.73 40.884,63.719 40.681,63.719C40.519,63.719 40.398,64.147 40.398,64.618Z" style="fill:rgb(255,0,0);fill-rule:nonzero;"/>
            </g>
            <g transform="matrix(1,0,0,1,0.498659,1.475)">
                <path d="M51.182,64.96C47.087,66.415 46.276,67.399 46.763,70.266L47.087,72.277L49.358,70.822C50.615,70.009 52.399,69.239 53.331,69.068C54.669,68.854 54.994,68.597 54.994,67.87C54.994,67.356 55.115,66.201 55.237,65.302C55.561,63.377 55.521,63.377 51.182,64.96Z" style="fill:rgb(58,58,60);fill-rule:nonzero;"/>
            </g>
            <g transform="matrix(1,0,0,1,0.498659,1.475)">
                <path d="M59.13,66.158L59.252,68.64L61.198,69.153C62.252,69.41 63.996,70.223 65.091,70.95C66.186,71.635 67.199,72.106 67.321,71.977C67.443,71.806 67.564,70.779 67.564,69.624C67.564,68.169 67.321,67.314 66.794,66.757C66.145,66.073 60.347,63.719 59.333,63.719C59.171,63.719 59.049,64.832 59.13,66.158Z" style="fill:rgb(58,58,60);fill-rule:nonzero;"/>
            </g>
            <g transform="matrix(1,0,0,1,0.498659,1.475)">
                <path d="M71.091,65.131C69.226,66.372 69.145,66.501 69.388,67.955C69.55,68.811 69.794,69.624 69.915,69.795C70.321,70.18 73.564,66.158 73.848,64.875C74.213,63.377 73.605,63.42 71.091,65.131Z" style="fill:rgb(255,0,0);fill-rule:nonzero;"/>
            </g>
            <g transform="matrix(1,0,0,1,0.498659,1.475)">
                <path d="M38.37,68.64C38.37,68.768 39.505,70.394 40.925,72.277C43.641,75.999 43.925,75.999 44.006,72.277C44.047,70.908 43.844,70.694 42.019,69.581C40.195,68.554 38.37,68.084 38.37,68.64Z" style="fill:rgb(255,0,0);fill-rule:nonzero;"/>
            </g>
            <g transform="matrix(1,0,0,1,0.498659,1.475)">
                <path d="M72.187,69.71L70.078,70.95L70.281,73.004C70.403,74.117 70.524,75.229 70.565,75.443C70.605,75.743 73.16,72.619 75.795,68.939C76.525,67.955 74.336,68.383 72.187,69.71Z" style="fill:rgb(255,0,0);fill-rule:nonzero;"/>
            </g>
            <g transform="matrix(1,0,0,1,0.498659,1.475)">
                <path d="M75.268,71.507C74.497,72.961 73.038,75.186 72.065,76.427C70.483,78.524 70.321,78.952 70.524,80.492C70.645,81.433 70.848,82.289 70.97,82.46C71.132,82.589 72.308,81.604 73.565,80.278C75.795,77.925 75.957,77.668 76.606,74.245C77.011,72.191 77.174,70.309 77.011,69.795C76.728,69.025 76.525,69.239 75.268,71.507Z" style="fill:rgb(255,0,0);fill-rule:nonzero;"/>
            </g>
            <g transform="matrix(1,0,0,1,0.498659,1.475)">
                <path d="M37.153,70.608C37.153,71.293 37.437,73.218 37.802,74.801C38.329,77.326 38.694,78.053 40.519,80.15C41.695,81.476 42.871,82.546 43.154,82.546C43.479,82.546 43.641,81.818 43.641,80.449C43.641,78.695 43.438,78.053 42.262,76.641C41.532,75.657 40.194,73.646 39.343,72.106C38.491,70.565 37.64,69.282 37.478,69.282C37.316,69.282 37.153,69.881 37.153,70.608Z" style="fill:rgb(255,0,0);fill-rule:nonzero;"/>
            </g>
            <g transform="matrix(1,0,0,1,0.498659,1.475)">
                <path d="M51.061,72.833L47.29,74.544L47.29,77.069C47.29,78.438 47.371,79.55 47.493,79.55C47.574,79.55 48.263,79.251 48.993,78.951C49.723,78.609 51.345,78.181 52.602,78.053L54.872,77.796L55.116,74.715C55.278,73.047 55.237,71.506 55.075,71.378C54.913,71.25 53.088,71.891 51.061,72.833Z" style="fill:rgb(58,58,60);fill-rule:nonzero;"/>
            </g>
            <g transform="matrix(1,0,0,1,0.498659,1.475)">
                <path d="M59.049,71.036L59.049,77.753L61.806,78.053C63.306,78.224 65.009,78.652 65.618,78.951C66.226,79.294 66.793,79.55 66.956,79.55C67.402,79.55 67.158,74.887 66.672,74.544C66.388,74.373 64.563,73.475 62.617,72.619L59.049,71.036Z" style="fill:rgb(58,58,60);fill-rule:nonzero;"/>
            </g>
            <g transform="matrix(1,0,0,1,0.498659,1.475)">
                <path d="M49.44,81.562L47.331,81.733L47.088,83.573C46.642,86.653 46.845,86.996 49.115,87.295C50.251,87.423 51.954,87.937 52.967,88.45C54.305,89.092 54.833,89.22 55.076,88.835C55.238,88.536 55.4,86.739 55.4,84.771L55.4,81.262L53.494,81.348C52.4,81.39 50.616,81.476 49.44,81.562Z" style="fill:rgb(58,58,60);fill-rule:nonzero;"/>
            </g>
            <g transform="matrix(1,0,0,1,0.498659,1.475)">
                <path d="M58.927,85.156C59.049,87.381 59.211,89.22 59.252,89.306C59.292,89.349 60.306,88.921 61.522,88.322C62.779,87.723 64.442,87.252 65.455,87.252L67.158,87.252L67.158,84.728C67.158,83.316 66.996,82.075 66.834,81.947C66.672,81.861 64.766,81.604 62.617,81.433L58.725,81.134L58.927,85.156Z" style="fill:rgb(58,58,60);fill-rule:nonzero;"/>
            </g>
            <g transform="matrix(1,0,0,1,0.498659,1.475)">
                <path d="M39.749,90.247L39.384,97.992L42.709,100.73C44.493,102.27 46.196,103.511 46.398,103.511C47.128,103.511 47.128,102.056 46.398,99.96C45.871,98.462 45.588,96.066 45.385,91.787L45.142,85.712L42.83,84.129C41.573,83.273 40.438,82.546 40.316,82.546C40.195,82.546 39.951,86.011 39.749,90.247Z" style="fill:rgb(255,0,0);fill-rule:nonzero;"/>
            </g>
            <g transform="matrix(1,0,0,1,0.498659,1.475)">
                <path d="M71.131,84.3L68.78,86.012L68.78,91.745C68.78,96.537 68.658,97.864 67.928,99.747C67.482,100.987 67.198,102.399 67.361,102.956C67.563,103.94 67.726,103.854 71.213,101.073L74.862,98.163L74.659,93.243C74.335,86.269 74.01,82.546 73.686,82.589C73.564,82.589 72.388,83.359 71.131,84.3Z" style="fill:rgb(255,0,0);fill-rule:nonzero;"/>
            </g>
            <g transform="matrix(1,0,0,1,0.498659,1.475)">
                <path d="M47.817,90.761C47.939,91.317 48.628,95.596 49.317,100.302L50.615,108.86L52.764,110.443C54.669,111.855 54.953,111.983 55.156,111.298C55.278,110.913 55.399,106.891 55.44,102.441C55.521,92.472 55.197,91.06 52.723,90.632C47.33,89.691 47.574,89.691 47.817,90.761Z" style="fill:rgb(58,58,60);fill-rule:nonzero;"/>
            </g>
            <g transform="matrix(1,0,0,1,0.498659,1.475)">
                <path d="M62.82,90.376L59.9,90.803L59.251,93.028C58.603,95.424 58.522,99.703 59.008,107.704L59.251,112.111L61.481,110.443L63.671,108.774L65.009,100.045C66.428,90.675 66.509,89.777 66.063,89.862C65.861,89.905 64.441,90.119 62.82,90.376Z" style="fill:rgb(58,58,60);fill-rule:nonzero;"/>
            </g>
        </g>
    </g>
</svg>
