<?xml version="1.0" encoding="UTF-8" standalone="no"?>
<!DOCTYPE svg PUBLIC "-//W3C//DTD SVG 1.1//EN" "http://www.w3.org/Graphics/SVG/1.1/DTD/svg11.dtd">
<svg width="100%" height="100%" viewBox="0 0 40 65" version="1.1" xmlns="http://www.w3.org/2000/svg" xmlns:xlink="http://www.w3.org/1999/xlink" xml:space="preserve" xmlns:serif="http://www.serif.com/" style="fill-rule:evenodd;clip-rule:evenodd;stroke-linejoin:round;stroke-miterlimit:2;">
    <g transform="matrix(1,0,0,1,-37.6921,-102.376)">
        <g id="front">
            <g transform="matrix(1,0,0,1,0.498659,1.475)">
                <path d="M37.964,105.308C37.964,107.747 37.761,115.449 37.558,122.466L37.193,135.216L40.762,148.48C42.708,155.754 44.451,161.83 44.614,162.001C45.506,162.985 45.1,160.033 42.343,146.812L39.302,131.965L39.829,120.412C40.113,114.037 40.356,107.405 40.356,105.65C40.397,102.484 40.356,102.399 39.18,101.671L37.964,100.901L37.964,105.308Z" style="fill:rgb(58,58,60);fill-rule:nonzero;"/>
            </g>
            <g transform="matrix(1,0,0,1,0.498659,1.475)">
                <path d="M74.781,101.929L73.687,102.87L74.295,117.845L74.903,132.821L71.862,147.326C70.159,155.327 68.902,161.959 68.983,162.087C69.551,162.644 70.281,160.461 73.484,148.609L76.93,135.816L76.647,121.91C76.525,114.251 76.282,106.421 76.12,104.496L75.876,100.944L74.781,101.929Z" style="fill:rgb(58,58,60);fill-rule:nonzero;"/>
            </g>
            <g transform="matrix(1,0,0,1,0.498659,1.475)">
                <path d="M44.33,107.02C44.168,107.662 44.695,109.116 46.114,111.726C47.25,113.78 48.669,117.032 49.277,118.957L50.372,122.466L52.115,119.3C53.088,117.545 53.94,116.005 54.021,115.877C54.102,115.706 51.993,113.438 49.358,110.828C45.06,106.549 44.533,106.164 44.33,107.02Z" style="fill:rgb(58,58,60);fill-rule:nonzero;"/>
            </g>
            <g transform="matrix(1,0,0,1,0.498659,1.475)">
                <path d="M42.02,109.801L42.02,113.267L47.696,126.659C50.818,134.061 53.373,139.795 53.373,139.452C53.373,139.11 53.008,136.586 52.602,133.89C51.873,129.312 51.508,128.199 47.088,117.845C44.452,111.726 42.263,106.635 42.182,106.549C42.101,106.463 42.02,107.918 42.02,109.801Z" style="fill:rgb(255,0,0);fill-rule:nonzero;"/>
            </g>
            <g transform="matrix(1,0,0,1,0.498659,1.475)">
                <path d="M64.645,111.127L60.103,115.791L61.847,118.829C62.82,120.54 63.712,121.91 63.874,121.91C64.037,121.91 64.564,120.498 65.091,118.786C65.618,117.117 66.915,114.037 68.01,112.026C69.875,108.517 70.484,106.506 69.632,106.506C69.389,106.506 67.159,108.603 64.645,111.127Z" style="fill:rgb(58,58,60);fill-rule:nonzero;"/>
            </g>
            <g transform="matrix(1,0,0,1,0.498659,1.475)">
                <path d="M67.078,118.144C62.455,129.055 62.293,129.568 61.523,134.66C61.117,137.57 60.914,139.795 61.077,139.581C61.239,139.409 63.834,133.248 66.915,125.974C71.497,114.978 72.43,112.368 72.389,110.785C72.268,106.035 72.024,106.421 67.078,118.144Z" style="fill:rgb(255,0,0);fill-rule:nonzero;"/>
            </g>
            <g transform="matrix(1,0,0,1,0.498659,1.475)">
                <path d="M41.045,123.322L40.762,131.623L43.843,146.555C47.452,164.012 47.209,162.986 47.898,162.986C48.506,162.986 48.587,162.258 49.763,147.497L50.615,136.543L46.236,126.103C43.843,120.37 41.775,115.535 41.613,115.363C41.451,115.192 41.208,118.744 41.045,123.322Z" style="fill:rgb(255,0,0);fill-rule:nonzero;"/>
            </g>
            <g transform="matrix(1,0,0,1,0.498659,1.475)">
                <path d="M72.632,115.021L63.631,136.671L64.685,149.721C65.577,160.547 65.861,162.772 66.348,162.9C66.875,162.985 67.564,160.161 70.159,147.582C73.362,132.179 73.362,132.136 73.241,126.488C73.2,123.407 73.038,119.514 72.876,117.931L72.632,115.021Z" style="fill:rgb(255,0,0);fill-rule:nonzero;"/>
            </g>
            <g transform="matrix(1,0,0,1,0.498659,1.475)">
                <path d="M53.493,120.498C52.52,122.081 51.75,123.664 51.75,124.006C51.75,124.391 52.034,126.402 52.399,128.499L53.088,132.35L54.426,129.569C55.561,127.215 55.764,126.402 55.764,123.835C55.764,122.167 55.643,120.113 55.48,119.214L55.197,117.631L53.493,120.498Z" style="fill:rgb(58,58,60);fill-rule:nonzero;"/>
            </g>
            <g transform="matrix(1,0,0,1,0.498659,1.475)">
                <path d="M58.644,122.337C58.644,126.573 58.765,127.258 59.738,129.397C60.347,130.681 60.955,131.75 61.076,131.75C61.239,131.75 61.644,129.911 62.009,127.686L62.698,123.664L60.833,120.626C59.819,119 58.927,117.631 58.846,117.631C58.725,117.631 58.644,119.727 58.644,122.337Z" style="fill:rgb(58,58,60);fill-rule:nonzero;"/>
            </g>
            <g transform="matrix(1,0,0,1,0.498659,1.475)">
                <path d="M51.629,140.993C50.899,146.94 49.642,162.172 49.845,162.686C50.048,163.285 52.846,164.996 53.129,164.654C53.251,164.568 53.9,162.087 54.63,159.177L55.968,153.914L54.427,147.411C53.616,143.859 52.683,140.479 52.4,139.923C51.872,138.939 51.872,139.024 51.629,140.993Z" style="fill:rgb(255,0,0);fill-rule:nonzero;"/>
            </g>
            <g transform="matrix(1,0,0,1,0.498659,1.475)">
                <path d="M61.563,140.608C61.32,141.292 60.468,144.544 59.657,147.924L58.238,154L59.211,157.765C59.739,159.819 60.387,162.301 60.631,163.285L61.117,165.082L62.942,163.927C64.685,162.857 64.766,162.686 64.564,161.274C64.483,160.461 63.955,155.198 63.469,149.593C62.942,144.031 62.415,139.453 62.252,139.453C62.09,139.453 61.806,139.966 61.563,140.608Z" style="fill:rgb(255,0,0);fill-rule:nonzero;"/>
            </g>
        </g>
    </g>
</svg>
