<?xml version="1.0" encoding="UTF-8" standalone="no"?>
<!DOCTYPE svg PUBLIC "-//W3C//DTD SVG 1.1//EN" "http://www.w3.org/Graphics/SVG/1.1/DTD/svg11.dtd">
<svg width="100%" height="100%" viewBox="0 0 32 75" version="1.1" xmlns="http://www.w3.org/2000/svg" xmlns:xlink="http://www.w3.org/1999/xlink" xml:space="preserve" xmlns:serif="http://www.serif.com/" style="fill-rule:evenodd;clip-rule:evenodd;stroke-linejoin:round;stroke-miterlimit:2;">
    <g transform="matrix(1,0,0,1,-41.7477,-164.246)">
        <g id="front">
            <g transform="matrix(1,0,0,1,0.498659,1.475)">
                <path d="M42.02,167.307L42.02,171.799L43.722,172.27C44.696,172.527 45.507,172.698 45.547,172.655C45.75,172.484 42.749,163.67 42.344,163.199C42.182,162.985 42.02,164.825 42.02,167.307Z" style="fill:rgb(58,58,60);fill-rule:nonzero;"/>
            </g>
            <g transform="matrix(1,0,0,1,0.498659,1.475)">
                <path d="M71.375,164.269C71.132,165.082 70.361,167.392 69.672,169.361C68.415,172.869 68.415,172.912 69.307,172.612C69.794,172.441 70.686,172.227 71.334,172.099C72.348,171.885 72.429,171.757 72.389,169.66C72.348,168.462 72.226,166.408 72.105,165.125L71.821,162.771L71.375,164.269Z" style="fill:rgb(58,58,60);fill-rule:nonzero;"/>
            </g>
            <g transform="matrix(1,0,0,1,0.498659,1.475)">
                <path d="M45.466,167.264C45.263,168.291 45.425,168.805 46.236,169.874C46.804,170.602 47.372,171.714 47.534,172.313C48.102,175.266 48.385,176.036 48.953,176.164C49.399,176.25 49.723,175.394 50.291,172.527C50.697,170.473 51.061,168.163 51.102,167.478L51.143,166.195L48.426,166.066L45.75,165.938L45.466,167.264Z" style="fill:rgb(58,58,60);fill-rule:nonzero;"/>
            </g>
            <g transform="matrix(1,0,0,1,0.498659,1.475)">
                <path d="M63.145,166.537C62.82,167.008 62.901,167.992 63.509,170.473C63.955,172.313 64.32,174.11 64.32,174.495C64.32,175.608 64.929,176.292 65.618,176.036C66.023,175.865 66.348,174.966 66.51,173.597C66.713,172.228 67.159,170.944 67.807,170.131C68.416,169.361 68.781,168.377 68.781,167.435L68.781,165.981L66.186,165.981C64.523,165.981 63.469,166.195 63.145,166.537Z" style="fill:rgb(58,58,60);fill-rule:nonzero;"/>
            </g>
            <g transform="matrix(1,0,0,1,0.498659,1.475)">
                <path d="M54.224,168.12C53.94,169.19 52.926,171.586 52.034,173.468C50.372,176.934 50.21,178.046 50.859,181.384C51.183,182.839 51.183,182.839 52.318,179.458C52.926,177.576 53.9,175.223 54.427,174.238C55.359,172.57 55.4,172.142 55.116,169.318L54.792,166.194L54.224,168.12Z" style="fill:rgb(58,58,60);fill-rule:nonzero;"/>
            </g>
            <g transform="matrix(1,0,0,1,0.498659,1.475)">
                <path d="M59.09,169.532C59.049,172.313 59.211,173.212 60.022,174.666C60.549,175.651 61.401,177.747 61.928,179.33C62.414,180.956 62.982,182.24 63.144,182.24C63.266,182.24 63.509,181.127 63.672,179.758C63.915,177.405 63.834,177.02 61.969,172.784C60.874,170.345 59.779,167.863 59.536,167.264C59.171,166.366 59.09,166.751 59.09,169.532Z" style="fill:rgb(58,58,60);fill-rule:nonzero;"/>
            </g>
            <g transform="matrix(1,0,0,1,0.498659,1.475)">
                <path d="M43.641,175.223C43.641,175.437 43.114,179.33 42.465,183.866L41.249,192.081L44.898,205.858C46.885,213.432 48.629,219.764 48.791,219.935C48.994,220.106 50.007,220.62 51.061,221.133C52.805,221.903 53.008,221.946 52.805,221.262C52.683,220.876 51.791,217.325 50.778,213.389L48.994,206.243L48.71,196.274L48.385,186.304L46.399,181.17C44.25,175.736 43.682,174.452 43.641,175.223Z" style="fill:rgb(255,0,0);fill-rule:nonzero;"/>
            </g>
            <g transform="matrix(1,0,0,1,0.498659,1.475)">
                <path d="M68.01,180.828L65.861,186.262L65.536,196.573L65.212,206.842L63.347,214.03C62.333,218.01 61.481,221.433 61.481,221.647C61.481,221.86 62.455,221.518 63.63,220.919L65.82,219.764L69.388,205.986L72.956,192.166L71.78,183.78C71.172,179.159 70.524,175.394 70.402,175.394C70.24,175.394 69.185,177.832 68.01,180.828Z" style="fill:rgb(255,0,0);fill-rule:nonzero;"/>
            </g>
            <g transform="matrix(1,0,0,1,0.498659,1.475)">
                <path d="M52.602,182.753C50.615,193.322 50.372,203.462 51.912,212.191L52.886,217.539L52.926,209.667C52.967,202.478 53.048,201.58 53.98,198.884C54.589,197.13 55.075,194.477 55.237,192.209C55.44,188.915 55.359,187.973 54.426,184.636C53.859,182.54 53.291,180.742 53.21,180.657C53.129,180.529 52.845,181.47 52.602,182.753Z" style="fill:rgb(255,0,0);fill-rule:nonzero;"/>
            </g>
            <g transform="matrix(1,0,0,1,0.498659,1.475)">
                <path d="M59.941,184.122C58.603,189.513 58.684,194.348 60.265,198.841C61.401,202.178 61.482,202.734 61.522,209.324L61.563,216.255L62.536,210.907C63.387,206.157 63.468,204.788 63.225,198.498C63.022,191.653 61.928,182.582 61.198,181.212C60.914,180.699 60.59,181.469 59.941,184.122Z" style="fill:rgb(255,0,0);fill-rule:nonzero;"/>
            </g>
            <g transform="matrix(1,0,0,1,0.498659,1.475)">
                <path d="M51.953,223.487C50.858,224.043 49.52,224.941 49.074,225.498C47.371,227.466 44.857,232.301 44.857,233.584C44.857,234.697 45.02,234.868 46.398,235.125C47.209,235.296 48.466,235.681 49.196,236.023C50.98,236.793 51.345,236.751 51.345,235.724C51.345,234.526 52.034,234.654 52.318,235.938C52.521,236.708 52.845,237.007 53.575,237.007C54.102,237.007 54.67,236.793 54.832,236.537C55.4,235.553 55.846,225.326 55.359,223.872C54.873,222.203 54.629,222.203 51.953,223.487Z" style="fill:rgb(58,58,60);fill-rule:nonzero;"/>
            </g>
            <g transform="matrix(1,0,0,1,0.498659,1.475)">
                <path d="M59.049,223.529C58.522,225.027 58.522,232.129 59.089,234.868C59.454,236.708 59.657,237.007 60.508,237.007C61.198,237.007 61.603,236.665 61.887,235.938C62.374,234.526 63.063,234.568 62.779,235.938L62.617,237.05L64.766,236.194C65.982,235.766 67.442,235.253 68.091,235.125C70.199,234.611 69.307,231.188 65.617,225.968C64.725,224.727 62.738,223.486 60.306,222.674C59.616,222.46 59.373,222.631 59.049,223.529Z" style="fill:rgb(58,58,60);fill-rule:nonzero;"/>
            </g>
        </g>
    </g>
</svg>
