<?xml version="1.0" encoding="UTF-8" standalone="no"?>
<!DOCTYPE svg PUBLIC "-//W3C//DTD SVG 1.1//EN" "http://www.w3.org/Graphics/SVG/1.1/DTD/svg11.dtd">
<svg width="100%" height="100%" viewBox="0 0 115 240" version="1.1" xmlns="http://www.w3.org/2000/svg" xmlns:xlink="http://www.w3.org/1999/xlink" xml:space="preserve" xmlns:serif="http://www.serif.com/" style="fill-rule:evenodd;clip-rule:evenodd;stroke-linejoin:round;stroke-miterlimit:2;">
    <g id="front">
        <g transform="matrix(1,0,0,1,0.498659,1.475)">
            <path d="M44.33,107.02C44.168,107.662 44.695,109.116 46.114,111.726C47.25,113.78 48.669,117.032 49.277,118.957L50.372,122.466L52.115,119.3C53.088,117.545 53.94,116.005 54.021,115.877C54.102,115.706 51.993,113.438 49.358,110.828C45.06,106.549 44.533,106.164 44.33,107.02Z" style="fill:rgb(255,0,0);fill-rule:nonzero;"/>
        </g>
        <g transform="matrix(1,0,0,1,0.498659,1.475)">
            <path d="M64.645,111.127L60.103,115.791L61.847,118.829C62.82,120.54 63.712,121.91 63.874,121.91C64.037,121.91 64.564,120.498 65.091,118.786C65.618,117.117 66.915,114.037 68.01,112.026C69.875,108.517 70.484,106.506 69.632,106.506C69.389,106.506 67.159,108.603 64.645,111.127Z" style="fill:rgb(255,0,0);fill-rule:nonzero;"/>
        </g>
        <g transform="matrix(1,0,0,1,0.498659,1.475)">
            <path d="M53.493,120.498C52.52,122.081 51.75,123.664 51.75,124.006C51.75,124.391 52.034,126.402 52.399,128.499L53.088,132.35L54.426,129.569C55.561,127.215 55.764,126.402 55.764,123.835C55.764,122.167 55.643,120.113 55.48,119.214L55.197,117.631L53.493,120.498Z" style="fill:rgb(255,0,0);fill-rule:nonzero;"/>
        </g>
        <g transform="matrix(1,0,0,1,0.498659,1.475)">
            <path d="M58.644,122.337C58.644,126.573 58.765,127.258 59.738,129.397C60.347,130.681 60.955,131.75 61.076,131.75C61.239,131.75 61.644,129.911 62.009,127.686L62.698,123.664L60.833,120.626C59.819,119 58.927,117.631 58.846,117.631C58.725,117.631 58.644,119.727 58.644,122.337Z" style="fill:rgb(255,0,0);fill-rule:nonzero;"/>
        </g>
    </g>
</svg>
