<?xml version="1.0" encoding="UTF-8" standalone="no"?>
<!DOCTYPE svg PUBLIC "-//W3C//DTD SVG 1.1//EN" "http://www.w3.org/Graphics/SVG/1.1/DTD/svg11.dtd">
<svg width="100%" height="100%" viewBox="0 0 115 240" version="1.1" xmlns="http://www.w3.org/2000/svg" xmlns:xlink="http://www.w3.org/1999/xlink" xml:space="preserve" xmlns:serif="http://www.serif.com/" style="fill-rule:evenodd;clip-rule:evenodd;stroke-linejoin:round;stroke-miterlimit:2;">
    <g id="front">
        <g transform="matrix(1,0,0,1,0.498659,1.475)">
            <path d="M90.514,78.951C89.824,86.182 89.338,84.727 96.353,96.879C101.826,106.335 103.651,108.987 103.651,107.404C103.651,107.19 102.272,104.324 100.61,101.072C98.056,96.023 97.528,94.654 97.163,91.958C96.515,86.909 94.082,80.106 92.298,78.095L90.757,76.469L90.514,78.951Z" style="fill:rgb(255,0,0);fill-rule:nonzero;"/>
        </g>
        <g transform="matrix(1,0,0,1,0.498659,1.475)">
            <path d="M21.786,78.438C20.205,80.192 17.529,87.851 17.083,91.958C16.839,94.269 16.272,95.766 13.758,100.815C12.095,104.153 10.717,107.019 10.717,107.233C10.798,108.645 12.339,106.42 17.853,96.879L24.219,85.925L23.935,81.476C23.773,78.994 23.53,76.983 23.408,76.983C23.246,76.983 22.516,77.625 21.786,78.438Z" style="fill:rgb(255,0,0);fill-rule:nonzero;"/>
        </g>
        <g transform="matrix(1,0,0,1,0.498659,1.475)">
            <path d="M28.72,84.471L25.314,86.739L20.043,96.494C14.771,106.207 14.771,106.207 15.258,107.833C16.069,110.4 16.353,110.7 17.042,109.716C17.366,109.245 19.961,105.651 22.84,101.714C27.868,94.783 28.111,94.398 30.22,88.536C31.436,85.241 32.328,82.46 32.247,82.332C32.166,82.246 30.544,83.188 28.72,84.471Z" style="fill:rgb(255,0,0);fill-rule:nonzero;"/>
        </g>
        <g transform="matrix(1,0,0,1,0.498659,1.475)">
            <path d="M81.918,82.802C82.121,83.273 83.134,86.097 84.269,89.135C86.216,94.483 86.5,94.954 91.974,102.527C95.136,106.849 97.772,110.357 97.853,110.357C97.934,110.357 98.339,109.501 98.785,108.432L99.596,106.463L94.285,96.622L88.973,86.781L86.297,84.942C84.797,83.957 83.134,82.888 82.607,82.588C81.715,82.075 81.675,82.075 81.918,82.802Z" style="fill:rgb(255,0,0);fill-rule:nonzero;"/>
        </g>
    </g>
</svg>
