<?xml version="1.0" encoding="UTF-8" standalone="no"?>
<!DOCTYPE svg PUBLIC "-//W3C//DTD SVG 1.1//EN" "http://www.w3.org/Graphics/SVG/1.1/DTD/svg11.dtd">
<svg width="100%" height="100%" viewBox="0 0 115 240" version="1.1" xmlns="http://www.w3.org/2000/svg" xmlns:xlink="http://www.w3.org/1999/xlink" xml:space="preserve" xmlns:serif="http://www.serif.com/" style="fill-rule:evenodd;clip-rule:evenodd;stroke-linejoin:round;stroke-miterlimit:2;">
    <g id="front">
        <g transform="matrix(1,0,0,1,0.498659,1.475)">
            <path d="M49.44,81.562L47.331,81.733L47.088,83.573C46.642,86.653 46.845,86.996 49.115,87.295C50.251,87.423 51.954,87.937 52.967,88.45C54.305,89.092 54.833,89.22 55.076,88.835C55.238,88.536 55.4,86.739 55.4,84.771L55.4,81.262L53.494,81.348C52.4,81.39 50.616,81.476 49.44,81.562Z" style="fill:rgb(255,0,0);fill-rule:nonzero;"/>
        </g>
        <g transform="matrix(1,0,0,1,0.498659,1.475)">
            <path d="M58.927,85.156C59.049,87.381 59.211,89.22 59.252,89.306C59.292,89.349 60.306,88.921 61.522,88.322C62.779,87.723 64.442,87.252 65.455,87.252L67.158,87.252L67.158,84.728C67.158,83.316 66.996,82.075 66.834,81.947C66.672,81.861 64.766,81.604 62.617,81.433L58.725,81.134L58.927,85.156Z" style="fill:rgb(255,0,0);fill-rule:nonzero;"/>
        </g>
        <g transform="matrix(1,0,0,1,0.498659,1.475)">
            <path d="M47.817,90.761C47.939,91.317 48.628,95.596 49.317,100.302L50.615,108.86L52.764,110.443C54.669,111.855 54.953,111.983 55.156,111.298C55.278,110.913 55.399,106.891 55.44,102.441C55.521,92.472 55.197,91.06 52.723,90.632C47.33,89.691 47.574,89.691 47.817,90.761Z" style="fill:rgb(255,0,0);fill-rule:nonzero;"/>
        </g>
        <g transform="matrix(1,0,0,1,0.498659,1.475)">
            <path d="M62.82,90.376L59.9,90.803L59.251,93.028C58.603,95.424 58.522,99.703 59.008,107.704L59.251,112.111L61.481,110.443L63.671,108.774L65.009,100.045C66.428,90.675 66.509,89.777 66.063,89.862C65.861,89.905 64.441,90.119 62.82,90.376Z" style="fill:rgb(255,0,0);fill-rule:nonzero;"/>
        </g>
    </g>
</svg>
