<?xml version="1.0" encoding="UTF-8" standalone="no"?>
<!DOCTYPE svg PUBLIC "-//W3C//DTD SVG 1.1//EN" "http://www.w3.org/Graphics/SVG/1.1/DTD/svg11.dtd">
<svg width="100%" height="100%" viewBox="0 0 115 240" version="1.1" xmlns="http://www.w3.org/2000/svg" xmlns:xlink="http://www.w3.org/1999/xlink" xml:space="preserve" xmlns:serif="http://www.serif.com/" style="fill-rule:evenodd;clip-rule:evenodd;stroke-linejoin:round;stroke-miterlimit:2;">
    <g id="front">
        <g transform="matrix(1,0,0,1,0.498659,1.475)">
            <path d="M41.045,123.322L40.762,131.623L43.843,146.555C47.452,164.012 47.209,162.986 47.898,162.986C48.506,162.986 48.587,162.258 49.763,147.497L50.615,136.543L46.236,126.103C43.843,120.37 41.775,115.535 41.613,115.363C41.451,115.192 41.208,118.744 41.045,123.322Z" style="fill:rgb(255,0,0);fill-rule:nonzero;"/>
        </g>
        <g transform="matrix(1,0,0,1,0.498659,1.475)">
            <path d="M72.632,115.021L63.631,136.671L64.685,149.721C65.577,160.547 65.861,162.772 66.348,162.9C66.875,162.985 67.564,160.161 70.159,147.582C73.362,132.179 73.362,132.136 73.241,126.488C73.2,123.407 73.038,119.514 72.876,117.931L72.632,115.021Z" style="fill:rgb(255,0,0);fill-rule:nonzero;"/>
        </g>
        <g transform="matrix(1,0,0,1,0.498659,1.475)">
            <path d="M51.629,140.993C50.899,146.94 49.642,162.172 49.845,162.686C50.048,163.285 52.846,164.996 53.129,164.654C53.251,164.568 53.9,162.087 54.63,159.177L55.968,153.914L54.427,147.411C53.616,143.859 52.683,140.479 52.4,139.923C51.872,138.939 51.872,139.024 51.629,140.993Z" style="fill:rgb(255,0,0);fill-rule:nonzero;"/>
        </g>
        <g transform="matrix(1,0,0,1,0.498659,1.475)">
            <path d="M61.563,140.608C61.32,141.292 60.468,144.544 59.657,147.924L58.238,154L59.211,157.765C59.739,159.819 60.387,162.301 60.631,163.285L61.117,165.082L62.942,163.927C64.685,162.857 64.766,162.686 64.564,161.274C64.483,160.461 63.955,155.198 63.469,149.593C62.942,144.031 62.415,139.453 62.252,139.453C62.09,139.453 61.806,139.966 61.563,140.608Z" style="fill:rgb(255,0,0);fill-rule:nonzero;"/>
        </g>
    </g>
</svg>
