<?xml version="1.0" encoding="UTF-8" standalone="no"?>
<!DOCTYPE svg PUBLIC "-//W3C//DTD SVG 1.1//EN" "http://www.w3.org/Graphics/SVG/1.1/DTD/svg11.dtd">
<svg width="100%" height="100%" viewBox="0 0 115 240" version="1.1" xmlns="http://www.w3.org/2000/svg" xmlns:xlink="http://www.w3.org/1999/xlink" xml:space="preserve" xmlns:serif="http://www.serif.com/" style="fill-rule:evenodd;clip-rule:evenodd;stroke-linejoin:round;stroke-miterlimit:2;">
    <g id="front">
        <g transform="matrix(1,0,0,1,0.498659,1.475)">
            <path d="M42.02,109.801L42.02,113.267L47.696,126.659C50.818,134.061 53.373,139.795 53.373,139.452C53.373,139.11 53.008,136.586 52.602,133.89C51.873,129.312 51.508,128.199 47.088,117.845C44.452,111.726 42.263,106.635 42.182,106.549C42.101,106.463 42.02,107.918 42.02,109.801Z" style="fill:rgb(255,0,0);fill-rule:nonzero;"/>
        </g>
        <g transform="matrix(1,0,0,1,0.498659,1.475)">
            <path d="M67.078,118.144C62.455,129.055 62.293,129.568 61.523,134.66C61.117,137.57 60.914,139.795 61.077,139.581C61.239,139.409 63.834,133.248 66.915,125.974C71.497,114.978 72.43,112.368 72.389,110.785C72.268,106.035 72.024,106.421 67.078,118.144Z" style="fill:rgb(255,0,0);fill-rule:nonzero;"/>
        </g>
    </g>
</svg>
