<?xml version="1.0" encoding="UTF-8" standalone="no"?>
<!DOCTYPE svg PUBLIC "-//W3C//DTD SVG 1.1//EN" "http://www.w3.org/Graphics/SVG/1.1/DTD/svg11.dtd">
<svg width="100%" height="100%" viewBox="0 0 115 240" version="1.1" xmlns="http://www.w3.org/2000/svg" xmlns:xlink="http://www.w3.org/1999/xlink" xml:space="preserve" xmlns:serif="http://www.serif.com/" style="fill-rule:evenodd;clip-rule:evenodd;stroke-linejoin:round;stroke-miterlimit:2;">
    <g id="front">
        <g transform="matrix(1,0,0,1,0.498659,1.475)">
            <path d="M43.641,175.223C43.641,175.437 43.114,179.33 42.465,183.866L41.249,192.081L44.898,205.858C46.885,213.432 48.629,219.764 48.791,219.935C48.994,220.106 50.007,220.62 51.061,221.133C52.805,221.903 53.008,221.946 52.805,221.262C52.683,220.876 51.791,217.325 50.778,213.389L48.994,206.243L48.71,196.274L48.385,186.304L46.399,181.17C44.25,175.736 43.682,174.452 43.641,175.223Z" style="fill:rgb(255,0,0);fill-rule:nonzero;"/>
        </g>
        <g transform="matrix(1,0,0,1,0.498659,1.475)">
            <path d="M68.01,180.828L65.861,186.262L65.536,196.573L65.212,206.842L63.347,214.03C62.333,218.01 61.481,221.433 61.481,221.647C61.481,221.86 62.455,221.518 63.63,220.919L65.82,219.764L69.388,205.986L72.956,192.166L71.78,183.78C71.172,179.159 70.524,175.394 70.402,175.394C70.24,175.394 69.185,177.832 68.01,180.828Z" style="fill:rgb(255,0,0);fill-rule:nonzero;"/>
        </g>
        <g transform="matrix(1,0,0,1,0.498659,1.475)">
            <path d="M52.602,182.753C50.615,193.322 50.372,203.462 51.912,212.191L52.886,217.539L52.926,209.667C52.967,202.478 53.048,201.58 53.98,198.884C54.589,197.13 55.075,194.477 55.237,192.209C55.44,188.915 55.359,187.973 54.426,184.636C53.859,182.54 53.291,180.742 53.21,180.657C53.129,180.529 52.845,181.47 52.602,182.753Z" style="fill:rgb(255,0,0);fill-rule:nonzero;"/>
        </g>
        <g transform="matrix(1,0,0,1,0.498659,1.475)">
            <path d="M59.941,184.122C58.603,189.513 58.684,194.348 60.265,198.841C61.401,202.178 61.482,202.734 61.522,209.324L61.563,216.255L62.536,210.907C63.387,206.157 63.468,204.788 63.225,198.498C63.022,191.653 61.928,182.582 61.198,181.212C60.914,180.699 60.59,181.469 59.941,184.122Z" style="fill:rgb(255,0,0);fill-rule:nonzero;"/>
        </g>
    </g>
</svg>
