<?xml version="1.0" encoding="UTF-8" standalone="no"?>
<!DOCTYPE svg PUBLIC "-//W3C//DTD SVG 1.1//EN" "http://www.w3.org/Graphics/SVG/1.1/DTD/svg11.dtd">
<svg width="100%" height="100%" viewBox="0 0 115 240" version="1.1" xmlns="http://www.w3.org/2000/svg" xmlns:xlink="http://www.w3.org/1999/xlink" xml:space="preserve" xmlns:serif="http://www.serif.com/" style="fill-rule:evenodd;clip-rule:evenodd;stroke-linejoin:round;stroke-miterlimit:2;">
    <g id="front">
        <g transform="matrix(1,0,0,1,0.498659,1.475)">
            <path d="M29.612,44.679L27.301,47.888L27.382,51.61C27.422,53.664 27.504,55.418 27.585,55.461C27.625,55.547 28.396,53.75 29.288,51.482C30.788,47.674 31.031,47.246 33.829,44.807C37.073,41.898 37.073,41.47 33.829,41.47C31.923,41.47 31.883,41.47 29.612,44.679Z" style="fill:rgb(255,0,60);fill-rule:nonzero;"/>
        </g>
        <g transform="matrix(1,0,0,1,0.498659,1.475)">
            <path d="M78.025,41.769C77.539,41.898 78.147,42.711 80.458,44.893C83.296,47.503 83.702,48.145 84.959,51.354C85.729,53.322 86.5,55.119 86.702,55.333C86.865,55.59 87.027,54.049 87.027,51.91L87.027,48.059L84.716,44.765C82.404,41.47 82.404,41.47 80.539,41.513C79.525,41.555 78.39,41.641 78.025,41.769Z" style="fill:rgb(255,0,60);fill-rule:nonzero;"/>
        </g>
        <g transform="matrix(1,0,0,1,0.498659,1.475)">
            <path d="M35.573,44.85C32.572,47.674 32.288,48.059 30.91,51.782C30.099,53.921 29.491,55.761 29.531,55.847C29.612,55.932 31.478,55.034 33.627,53.836L37.56,51.696L39.79,47.032C41.006,44.422 42.02,42.24 42.02,42.112C42.02,41.984 41.29,41.898 40.398,41.898C38.979,41.898 38.411,42.24 35.573,44.85Z" style="fill:rgb(255,0,60);fill-rule:nonzero;"/>
        </g>
        <g transform="matrix(1,0,0,1,0.498659,1.475)">
            <path d="M72.43,42.326C72.43,42.582 73.403,44.85 74.619,47.374L76.809,51.953L80.701,53.964C82.85,55.119 84.675,56.017 84.756,56.017C84.878,56.017 84.229,54.135 83.337,51.781C81.756,47.759 81.553,47.417 78.593,44.722C75.957,42.326 75.227,41.898 73.971,41.898C73.119,41.898 72.43,42.112 72.43,42.326Z" style="fill:rgb(255,0,60);fill-rule:nonzero;"/>
        </g>
    </g>
</svg>
