<?xml version="1.0" encoding="UTF-8" standalone="no"?>
<!DOCTYPE svg PUBLIC "-//W3C//DTD SVG 1.1//EN" "http://www.w3.org/Graphics/SVG/1.1/DTD/svg11.dtd">
<svg width="100%" height="100%" viewBox="0 0 115 240" version="1.1" xmlns="http://www.w3.org/2000/svg" xmlns:xlink="http://www.w3.org/1999/xlink" xml:space="preserve" xmlns:serif="http://www.serif.com/" style="fill-rule:evenodd;clip-rule:evenodd;stroke-linejoin:round;stroke-miterlimit:2;">
    <g id="front">
        <g transform="matrix(1,0,0,1,0.498659,1.475)">
            <path d="M24.908,63.291L22.962,66.201L22.962,70.094C22.962,73.86 23.003,74.074 24.462,76.341C25.273,77.668 26.003,78.609 26.084,78.524C26.165,78.438 25.962,76.641 25.598,74.544C24.949,70.822 24.949,70.693 25.962,65.687C26.53,62.863 26.976,60.51 26.895,60.467C26.854,60.425 25.962,61.708 24.908,63.291Z" style="fill:rgb(255,0,0);fill-rule:nonzero;"/>
        </g>
        <g transform="matrix(1,0,0,1,0.498659,1.475)">
            <path d="M87.432,61.152C87.432,61.494 87.878,63.804 88.364,66.286C89.297,70.693 89.297,70.822 88.608,74.844C88.243,77.069 87.999,78.951 88.04,79.037C88.08,79.08 88.77,78.095 89.581,76.812C91,74.587 91.04,74.373 91.121,70.18L91.162,65.901L89.621,63.633C87.594,60.638 87.432,60.424 87.432,61.152Z" style="fill:rgb(255,0,0);fill-rule:nonzero;"/>
        </g>
    </g>
</svg>
