<?xml version="1.0" encoding="UTF-8" standalone="no"?>
<!DOCTYPE svg PUBLIC "-//W3C//DTD SVG 1.1//EN" "http://www.w3.org/Graphics/SVG/1.1/DTD/svg11.dtd">
<svg width="100%" height="100%" viewBox="0 0 115 240" version="1.1" xmlns="http://www.w3.org/2000/svg" xmlns:xlink="http://www.w3.org/1999/xlink" xml:space="preserve" xmlns:serif="http://www.serif.com/" style="fill-rule:evenodd;clip-rule:evenodd;stroke-linejoin:round;stroke-miterlimit:2;">
    <g id="front">
        <g transform="matrix(1,0,0,1,0.498659,1.475)">
            <path d="M51.182,64.96C47.087,66.415 46.276,67.399 46.763,70.266L47.087,72.277L49.358,70.822C50.615,70.009 52.399,69.239 53.331,69.068C54.669,68.854 54.994,68.597 54.994,67.87C54.994,67.356 55.115,66.201 55.237,65.302C55.561,63.377 55.521,63.377 51.182,64.96Z" style="fill:rgb(255,0,0);fill-rule:nonzero;"/>
        </g>
        <g transform="matrix(1,0,0,1,0.498659,1.475)">
            <path d="M59.13,66.158L59.252,68.64L61.198,69.153C62.252,69.41 63.996,70.223 65.091,70.95C66.186,71.635 67.199,72.106 67.321,71.977C67.443,71.806 67.564,70.779 67.564,69.624C67.564,68.169 67.321,67.314 66.794,66.757C66.145,66.073 60.347,63.719 59.333,63.719C59.171,63.719 59.049,64.832 59.13,66.158Z" style="fill:rgb(255,0,0);fill-rule:nonzero;"/>
        </g>
        <g transform="matrix(1,0,0,1,0.498659,1.475)">
            <path d="M51.061,72.833L47.29,74.544L47.29,77.069C47.29,78.438 47.371,79.55 47.493,79.55C47.574,79.55 48.263,79.251 48.993,78.951C49.723,78.609 51.345,78.181 52.602,78.053L54.872,77.796L55.116,74.715C55.278,73.047 55.237,71.506 55.075,71.378C54.913,71.25 53.088,71.891 51.061,72.833Z" style="fill:rgb(255,0,0);fill-rule:nonzero;"/>
        </g>
        <g transform="matrix(1,0,0,1,0.498659,1.475)">
            <path d="M59.049,71.036L59.049,77.753L61.806,78.053C63.306,78.224 65.009,78.652 65.618,78.951C66.226,79.294 66.793,79.55 66.956,79.55C67.402,79.55 67.158,74.887 66.672,74.544C66.388,74.373 64.563,73.475 62.617,72.619L59.049,71.036Z" style="fill:rgb(255,0,0);fill-rule:nonzero;"/>
        </g>
    </g>
</svg>
