<?xml version="1.0" encoding="UTF-8" standalone="no"?>
<!DOCTYPE svg PUBLIC "-//W3C//DTD SVG 1.1//EN" "http://www.w3.org/Graphics/SVG/1.1/DTD/svg11.dtd">
<svg width="100%" height="100%" viewBox="0 0 56 58" version="1.1" xmlns="http://www.w3.org/2000/svg" xmlns:xlink="http://www.w3.org/1999/xlink" xml:space="preserve" xmlns:serif="http://www.serif.com/" style="fill-rule:evenodd;clip-rule:evenodd;stroke-linejoin:round;stroke-miterlimit:2;">
    <g transform="matrix(1,0,0,1,0.000128604,-0.0002)">
        <g transform="matrix(1,0,0,1,-0.779909,-70.7568)">
            <g id="front">
                <g transform="matrix(1,0,0,1,0.498659,1.475)">
                    <path d="M37.153,70.608C37.153,71.293 37.437,73.218 37.802,74.801C38.329,77.326 38.694,78.053 40.519,80.15C41.695,81.476 42.871,82.546 43.154,82.546C43.479,82.546 43.641,81.818 43.641,80.449C43.641,78.695 43.438,78.053 42.262,76.641C41.532,75.657 40.194,73.646 39.343,72.106C38.491,70.565 37.64,69.282 37.478,69.282C37.316,69.282 37.153,69.881 37.153,70.608Z" style="fill:rgb(78,78,82);fill-rule:nonzero;"/>
                </g>
                <g transform="matrix(1,0,0,1,0.498659,1.475)">
                    <path d="M29.044,79.123C26.774,81.775 25.8,83.188 25.963,83.658C26.125,84.129 26.368,84.214 26.733,83.958C26.976,83.701 28.233,82.76 29.531,81.775C31.599,80.192 31.842,79.807 32.247,77.796C32.491,76.555 32.653,75.486 32.572,75.4C32.45,75.315 30.909,76.983 29.044,79.123Z" style="fill:rgb(78,78,82);fill-rule:nonzero;"/>
                </g>
                <g transform="matrix(1,0,0,1,0.498659,1.475)">
                    <path d="M21.786,78.438C20.205,80.192 17.529,87.851 17.083,91.958C16.839,94.269 16.272,95.766 13.758,100.815C12.095,104.153 10.717,107.019 10.717,107.233C10.798,108.645 12.339,106.42 17.853,96.879L24.219,85.925L23.935,81.476C23.773,78.994 23.53,76.983 23.408,76.983C23.246,76.983 22.516,77.625 21.786,78.438Z" style="fill:rgb(131,92,106);fill-rule:nonzero;"/>
                </g>
                <g transform="matrix(1,0,0,1,0.498659,1.475)">
                    <path d="M49.44,81.562L47.331,81.733L47.088,83.573C46.642,86.653 46.845,86.996 49.115,87.295C50.251,87.423 51.954,87.937 52.967,88.45C54.305,89.092 54.833,89.22 55.076,88.835C55.238,88.536 55.4,86.739 55.4,84.771L55.4,81.262L53.494,81.348C52.4,81.39 50.616,81.476 49.44,81.562Z" style="fill:rgb(78,78,82);fill-rule:nonzero;"/>
                </g>
                <g transform="matrix(1,0,0,1,0.498659,1.475)">
                    <path d="M28.72,84.471L25.314,86.739L20.043,96.494C14.771,106.207 14.771,106.207 15.258,107.833C16.069,110.4 16.353,110.7 17.042,109.716C17.366,109.245 19.961,105.651 22.84,101.714C27.868,94.783 28.111,94.398 30.22,88.536C31.436,85.241 32.328,82.46 32.247,82.332C32.166,82.246 30.544,83.188 28.72,84.471Z" style="fill:rgb(131,92,106);fill-rule:nonzero;"/>
                </g>
                <g transform="matrix(1,0,0,1,0.498659,1.475)">
                    <path d="M39.749,90.247L39.384,97.992L42.709,100.73C44.493,102.27 46.196,103.511 46.398,103.511C47.128,103.511 47.128,102.056 46.398,99.96C45.871,98.462 45.588,96.066 45.385,91.787L45.142,85.712L42.83,84.129C41.573,83.273 40.438,82.546 40.316,82.546C40.195,82.546 39.951,86.011 39.749,90.247Z" style="fill:rgb(78,78,82);fill-rule:nonzero;"/>
                </g>
                <g transform="matrix(1,0,0,1,0.498659,1.475)">
                    <path d="M47.817,90.761C47.939,91.317 48.628,95.596 49.317,100.302L50.615,108.86L52.764,110.443C54.669,111.855 54.953,111.983 55.156,111.298C55.278,110.913 55.399,106.891 55.44,102.441C55.521,92.472 55.197,91.06 52.723,90.632C47.33,89.691 47.574,89.691 47.817,90.761Z" style="fill:rgb(78,78,82);fill-rule:nonzero;"/>
                </g>
                <g transform="matrix(1,0,0,1,0.498659,1.475)">
                    <path d="M6.5,109.844C5.121,110.486 3.175,111.812 2.121,112.839C-0.677,115.577 -0.272,116.262 3.256,114.593C4.27,114.122 5.324,113.866 5.527,113.994C5.811,114.165 4.919,116.39 3.337,119.599C0.864,124.563 0.783,124.905 1.634,124.905C2.324,124.905 2.972,124.177 4.27,122.081C6.5,118.316 7.23,118.872 5.527,123.108C4.878,124.776 4.31,126.231 4.31,126.317C4.31,126.445 4.675,126.616 5.162,126.745C5.892,126.959 6.216,126.531 7.392,123.792C8.203,121.867 8.973,120.626 9.379,120.626C10.149,120.626 10.149,120.84 9.176,123.835C8.203,126.873 8.162,127.044 9.095,127.044C9.622,127.044 10.068,126.317 10.798,124.22C11.609,121.696 12.501,120.541 13.069,121.182C13.271,121.353 12.906,123.193 12.177,125.846C12.014,126.402 12.177,126.616 12.704,126.616C14.325,126.616 16.272,112.796 14.772,112.283C14.488,112.197 13.555,112.026 12.704,111.855C11.487,111.641 11.082,111.341 10.595,110.143C10.311,109.33 9.784,108.646 9.5,108.688C9.217,108.688 7.838,109.245 6.5,109.844Z" style="fill:rgb(78,78,82);fill-rule:nonzero;"/>
                </g>
            </g>
        </g>
    </g>
</svg>
