<?xml version="1.0" encoding="UTF-8" standalone="no"?>
<!DOCTYPE svg PUBLIC "-//W3C//DTD SVG 1.1//EN" "http://www.w3.org/Graphics/SVG/1.1/DTD/svg11.dtd">
<svg width="100%" height="100%" viewBox="0 0 42 70" version="1.1" xmlns="http://www.w3.org/2000/svg" xmlns:xlink="http://www.w3.org/1999/xlink" xml:space="preserve" xmlns:serif="http://www.serif.com/" style="fill-rule:evenodd;clip-rule:evenodd;stroke-linejoin:round;stroke-miterlimit:2;">
    <g transform="matrix(1,0,0,1,-1.99235e-05,-1e-05)">
        <g transform="matrix(1,0,0,1,-36.8701,-102.771)">
            <g transform="matrix(1,0,0,1,0.499875,1.47401)">
                <path d="M45.555,102.796C42.096,104.338 41.775,104.681 39.04,110.205C37.793,112.774 37.713,113.16 37.713,117.357C37.713,120.868 37.914,122.367 38.557,124.294C39.04,125.665 39.603,127.206 39.764,127.72C40.086,128.62 40.246,128.491 42.539,125.965C44.67,123.609 45.635,122.924 50.381,120.569L55.81,117.871L55.81,114.145C55.81,108.449 55.609,107.892 53.196,106.179C51.708,105.109 50.903,104.21 50.461,102.968C50.139,102.068 49.617,101.297 49.295,101.34C49.013,101.34 47.324,102.025 45.555,102.796Z" style="fill:rgb(131,92,106);fill-rule:nonzero;"/>
            </g>
        </g>
        <g transform="matrix(1,0,0,1,-36.8701,-102.771)">
            <g transform="matrix(1,0,0,1,0.499875,1.47401)">
                <path d="M63.49,103.096C62.927,104.466 62.243,105.28 60.715,106.222C59.589,106.907 58.584,107.892 58.463,108.363C58.342,108.835 58.222,111.147 58.222,113.545L58.222,117.871L63.691,120.611C68.557,123.01 69.442,123.652 71.533,126.05C73.785,128.62 73.946,128.705 74.268,127.763C76.399,121.682 76.399,121.596 76.278,116.843L76.117,112.218L73.906,108.192L71.694,104.209L68.316,102.753C66.426,101.94 64.737,101.297 64.576,101.297C64.375,101.297 63.892,102.111 63.49,103.096Z" style="fill:rgb(131,92,106);fill-rule:nonzero;"/>
            </g>
        </g>
        <g transform="matrix(1,0,0,1,-36.8701,-102.771)">
            <g transform="matrix(1,0,0,1,0.499875,1.47401)">
                <path d="M52.552,121.168L51.105,122.239L50.863,130.076C50.702,136.585 50.783,138.512 51.346,141.553C52.15,145.664 52.03,145.835 53.598,138.041C54.402,133.93 54.603,131.789 54.603,126.564C54.603,123.052 54.483,120.14 54.282,120.14C54.121,120.14 53.357,120.611 52.552,121.168Z" style="fill:rgb(78,78,82);fill-rule:nonzero;"/>
            </g>
        </g>
        <g transform="matrix(1,0,0,1,-36.8701,-102.771)">
            <g transform="matrix(1,0,0,1,0.499875,1.47401)">
                <path d="M59.429,126.693C59.429,132.132 59.59,134.144 60.434,138.17C62.003,145.836 61.882,145.664 62.646,141.51C63.169,138.598 63.289,136.243 63.129,130.033L62.927,122.239L61.48,121.168C60.716,120.612 59.911,120.141 59.75,120.141C59.549,120.141 59.429,123.095 59.429,126.693Z" style="fill:rgb(78,78,82);fill-rule:nonzero;"/>
            </g>
        </g>
        <g transform="matrix(1,0,0,1,-36.8701,-102.771)">
            <g transform="matrix(1,0,0,1,0.499875,1.47401)">
                <path d="M47.445,124.552C46.48,125.065 45.635,125.836 45.555,126.35C45.434,126.821 44.911,130.162 44.308,133.802L43.263,140.354L43.906,148.662L44.55,157.013L47.204,164.079C48.692,167.976 49.938,171.102 49.979,171.017C50.059,170.931 50.662,169.432 51.386,167.676L52.673,164.464L52.15,157.398C51.788,151.874 51.386,149.304 50.381,145.621C49.134,140.953 49.134,140.825 49.416,134.701C49.818,126.35 49.818,123.567 49.496,123.609C49.295,123.609 48.41,124.038 47.445,124.552Z" style="fill:rgb(78,78,82);fill-rule:nonzero;"/>
            </g>
        </g>
        <g transform="matrix(1,0,0,1,-36.8701,-102.771)">
            <g transform="matrix(1,0,0,1,0.499875,1.47401)">
                <path d="M64.295,126.65C64.335,128.363 64.456,132.26 64.617,135.343C64.858,140.739 64.858,141.039 63.611,145.407C62.646,149.005 62.284,151.403 61.882,157.184L61.359,164.464L62.646,167.676C63.37,169.432 63.973,170.931 64.054,171.017C64.094,171.102 65.341,167.976 66.829,164.079L69.483,157.013L70.086,148.705L70.73,140.397L69.684,133.802C69.121,130.162 68.598,126.821 68.477,126.35C68.357,125.622 65.341,123.567 64.456,123.567C64.335,123.567 64.255,124.98 64.295,126.65Z" style="fill:rgb(78,78,82);fill-rule:nonzero;"/>
            </g>
        </g>
        <g transform="matrix(1,0,0,1,-36.8701,-102.771)">
            <g transform="matrix(1,0,0,1,0.499875,1.47401)">
                <path d="M36.426,125.793C36.346,126.093 36.346,129.048 36.466,132.346L36.708,138.341L38.96,129.947L38.075,127.592C37.15,125.279 36.748,124.808 36.426,125.793Z" style="fill:rgb(78,78,82);fill-rule:nonzero;"/>
            </g>
        </g>
        <g transform="matrix(1,0,0,1,-36.8701,-102.771)">
            <g transform="matrix(1,0,0,1,0.499875,1.47401)">
                <path d="M75.957,127.678L75.032,130.033L76.158,134.187L77.325,138.341L77.526,132.56C77.807,124.423 77.526,123.566 75.957,127.678Z" style="fill:rgb(78,78,82);fill-rule:nonzero;"/>
            </g>
        </g>
        <g transform="matrix(1,0,0,1,-36.8701,-102.771)">
            <g transform="matrix(1,0,0,1,0.499875,1.47401)">
                <path d="M41.332,129.605C40.568,130.119 39.844,130.59 39.764,130.675C39.683,130.761 38.959,134.358 38.155,138.641L36.667,146.478L37.954,150.889C38.879,154.015 39.321,156.584 39.522,159.839C40.005,167.119 40.166,167.205 41.774,160.696L43.182,154.957L42.176,151.788L41.211,148.619L42.096,139.412C42.579,134.358 43.101,129.862 43.182,129.433C43.463,128.491 43.061,128.491 41.332,129.605Z" style="fill:rgb(78,78,82);fill-rule:nonzero;"/>
            </g>
        </g>
        <g transform="matrix(1,0,0,1,-36.8701,-102.771)">
            <g transform="matrix(1,0,0,1,0.499875,1.47401)">
                <path d="M70.85,129.862C70.97,130.547 71.453,135.044 71.936,139.883L72.82,148.662L71.815,151.874L70.85,155.043L72.257,160.824C73.866,167.291 73.986,167.248 74.469,159.668C74.63,156.842 75.153,154.015 75.997,151.06L77.284,146.606L75.957,139.069C75.193,134.915 74.55,131.275 74.429,131.061C74.308,130.633 71.373,128.706 70.89,128.706C70.729,128.706 70.729,129.219 70.85,129.862Z" style="fill:rgb(78,78,82);fill-rule:nonzero;"/>
            </g>
        </g>
    </g>
</svg>
