<?xml version="1.0" encoding="UTF-8" standalone="no"?>
<!DOCTYPE svg PUBLIC "-//W3C//DTD SVG 1.1//EN" "http://www.w3.org/Graphics/SVG/1.1/DTD/svg11.dtd">
<svg width="100%" height="100%" viewBox="0 0 44 67" version="1.1" xmlns="http://www.w3.org/2000/svg" xmlns:xlink="http://www.w3.org/1999/xlink" xml:space="preserve" xmlns:serif="http://www.serif.com/" style="fill-rule:evenodd;clip-rule:evenodd;stroke-linejoin:round;stroke-miterlimit:2;">
    <g transform="matrix(1,0,0,1,2.5e-05,-2.30783e-05)">
        <g transform="matrix(1,0,0,1,-11.5899,-46.7282)">
            <g transform="matrix(1,0,0,1,0.499875,1.47401)">
                <path d="M36.627,47.038C34.053,49.993 33.611,50.893 33.771,52.991L33.892,54.833L38.919,55.561C41.694,55.989 44.147,56.289 44.388,56.203C44.67,56.16 44.107,54.062 42.941,50.764L41.05,45.411L39.643,45.283C38.436,45.154 38.034,45.411 36.627,47.038Z" style="fill:rgb(78,78,82);fill-rule:nonzero;"/>
            </g>
        </g>
        <g transform="matrix(1,0,0,1,-11.5899,-46.7282)">
            <g transform="matrix(1,0,0,1,0.499875,1.47401)">
                <path d="M27.739,58.516L23.557,63.141L23.878,69.993C24.039,74.19 24.321,77.016 24.602,77.273C24.844,77.444 25.889,78.044 26.935,78.515L28.825,79.371L31.238,74.832L33.651,70.25L32.887,62.156C32.444,57.702 32.042,54.019 32.002,53.976C31.921,53.933 30.031,55.989 27.739,58.516Z" style="fill:rgb(131,92,106);fill-rule:nonzero;"/>
            </g>
        </g>
        <g transform="matrix(1,0,0,1,-11.5899,-46.7282)">
            <g transform="matrix(1,0,0,1,0.499875,1.47401)">
                <path d="M39.361,75.387C36.224,66.18 33.69,58.043 33.69,57.272C33.69,56.544 33.811,55.902 34.012,55.902C34.173,55.945 36.747,56.459 39.803,57.144L45.272,58.343L49.897,62.968C55.206,68.235 54.964,67.636 55.045,76.629L55.045,87L51,97L48.248,95.472L45.071,92.089L39.361,75.387Z" style="fill:rgb(78,78,82);fill-rule:nonzero;"/>
            </g>
        </g>
        <g transform="matrix(1,0,0,1,-11.5899,-46.7282)">
            <g transform="matrix(1,0,0,1,0.499875,1.47401)">
                <path d="M25.125,81.598C23.637,83.911 23.637,83.996 23.637,88.279C23.637,92.433 23.597,92.733 21.627,97.872C20.541,100.784 19.656,103.225 19.737,103.268C19.817,103.353 21.466,101.383 23.396,98.857C26.654,94.703 27.136,93.846 29.107,88.707C30.233,85.624 31.117,83.011 31.037,82.926C30.956,82.84 30.635,83.011 30.313,83.268C29.107,84.339 27.981,83.654 27.257,81.384L26.573,79.286L25.125,81.598Z" style="fill:rgb(78,78,82);fill-rule:nonzero;"/>
            </g>
        </g>
        <g transform="matrix(1,0,0,1,-11.5899,-46.7282)">
            <g transform="matrix(1,0,0,1,0.499875,1.47401)">
                <path d="M19.937,82.583C18.53,83.911 18.369,84.339 16.358,92.518C14.749,99.156 13.945,101.768 12.698,104.081L11.09,107.079L12.055,108.92C12.578,109.948 13.181,110.976 13.463,111.233C13.825,111.533 14.91,109.563 17.725,103.567L21.546,95.516L22.028,90.077C22.511,84.981 22.39,81.898 21.707,81.427C21.546,81.341 20.741,81.855 19.937,82.583Z" style="fill:rgb(78,78,82);fill-rule:nonzero;"/>
            </g>
        </g>
    </g>
</svg>
