<?xml version="1.0" encoding="UTF-8" standalone="no"?>
<!DOCTYPE svg PUBLIC "-//W3C//DTD SVG 1.1//EN" "http://www.w3.org/Graphics/SVG/1.1/DTD/svg11.dtd">
<svg width="100%" height="100%" viewBox="0 0 36 74" version="1.1" xmlns="http://www.w3.org/2000/svg" xmlns:xlink="http://www.w3.org/1999/xlink" xml:space="preserve" xmlns:serif="http://www.serif.com/" style="fill-rule:evenodd;clip-rule:evenodd;stroke-linejoin:round;stroke-miterlimit:2;">
    <g transform="matrix(1,0,0,1,2.5e-05,-0.000467651)">
        <g transform="matrix(1,0,0,1,-39.9409,-164.536)">
            <g transform="matrix(1,0,0,1,0.499875,1.47401)">
                <path d="M42.538,164.978C42.538,166.091 42.055,168.618 41.492,170.588C40.688,173.415 40.366,175.941 39.964,182.408L39.441,190.587L41.412,194.827L43.423,199.067L44.468,197.953L45.514,196.84L44.83,192.001C44.307,188.018 44.227,185.106 44.428,175.684C44.669,164.764 44.629,164.207 43.905,163.608C42.699,162.665 42.538,162.837 42.538,164.978Z" style="fill:rgb(254,127,162);fill-rule:nonzero;"/>
            </g>
        </g>
        <g transform="matrix(1,0,0,1,-39.9409,-164.536)">
            <g transform="matrix(1,0,0,1,0.499875,1.47401)">
                <path d="M70.126,163.608C69.402,164.164 69.402,164.807 69.603,175.47C69.764,184.463 69.684,187.761 69.161,191.786L68.518,196.797L69.563,197.953L70.649,199.067L72.579,194.827L74.55,190.587L74.027,182.365C73.625,175.856 73.303,173.372 72.499,170.545C71.936,168.575 71.494,166.091 71.494,164.978C71.494,162.837 71.333,162.665 70.126,163.608Z" style="fill:rgb(254,127,162);fill-rule:nonzero;"/>
            </g>
        </g>
        <g transform="matrix(1,0,0,1,-39.9409,-164.536)">
            <g transform="matrix(1,0,0,1,0.499875,1.47401)">
                <path d="M46.359,180.481C46.519,190.502 46.761,194.998 47.082,195.512C47.364,195.898 48.409,197.225 49.415,198.424L51.305,200.651L52.391,198.852C54.08,196.112 54.2,191.829 52.793,183.692C51.707,177.568 51.546,177.097 48.892,171.744L46.117,166.177L46.359,180.481Z" style="fill:rgb(254,127,162);fill-rule:nonzero;"/>
            </g>
        </g>
        <g transform="matrix(1,0,0,1,-39.9409,-164.536)">
            <g transform="matrix(1,0,0,1,0.499875,1.47401)">
                <path d="M64.938,172.087C62.445,177.312 62.163,178.168 61.238,183.522C59.67,192.558 59.911,196.626 62.163,199.666L62.847,200.609L65.099,197.782L67.391,194.956L67.672,182.494C67.833,175.642 67.874,169.218 67.793,168.233L67.672,166.434L64.938,172.087Z" style="fill:rgb(254,127,162);fill-rule:nonzero;"/>
            </g>
        </g>
        <g transform="matrix(1,0,0,1,-39.9409,-164.536)">
            <g transform="matrix(1,0,0,1,0.499875,1.47401)">
                <path d="M44.952,199.152L43.986,200.223L45.675,208.917C46.962,215.64 47.445,219.237 47.767,225.062C48.048,229.944 48.37,232.642 48.692,232.856C49.053,233.113 49.255,231.528 49.456,226.646C49.616,223.049 50.139,217.053 50.582,213.285C51.828,202.964 51.868,203.306 48.812,200.48C47.405,199.152 46.198,198.082 46.078,198.082C45.997,198.082 45.474,198.553 44.952,199.152Z" style="fill:rgb(78,78,82);fill-rule:nonzero;"/>
            </g>
        </g>
        <g transform="matrix(1,0,0,1,-39.9409,-164.536)">
            <g transform="matrix(1,0,0,1,0.499875,1.47401)">
                <path d="M65.099,200.566L62.525,203.007L62.727,206.004C62.847,207.675 63.209,211.7 63.611,214.998C63.973,218.295 64.415,223.734 64.576,227.074C64.978,235.639 65.662,234.826 66.225,225.062C66.547,219.237 67.03,215.597 68.357,208.874L70.005,200.223L69.08,199.152C68.558,198.553 68.035,198.082 67.914,198.082C67.794,198.082 66.507,199.195 65.099,200.566Z" style="fill:rgb(78,78,82);fill-rule:nonzero;"/>
            </g>
        </g>
        <g transform="matrix(1,0,0,1,-39.9409,-164.536)">
            <g transform="matrix(1,0,0,1,0.499875,1.47401)">
                <path d="M43.343,213.542C43.343,216.882 43.664,220.351 44.308,224.291C44.871,227.503 45.193,230.543 45.072,231.014C44.791,232.128 45.595,233.241 46.439,232.899C47.324,232.513 46.801,223.092 45.474,215.64C44.067,207.718 43.343,206.99 43.343,213.542Z" style="fill:rgb(78,78,82);fill-rule:nonzero;"/>
            </g>
        </g>
        <g transform="matrix(1,0,0,1,-39.9409,-164.536)">
            <g transform="matrix(1,0,0,1,0.499875,1.47401)">
                <path d="M70.046,209.259C69.161,210.373 67.512,220.865 67.231,226.817C66.989,231.871 67.07,232.684 67.593,232.899C68.437,233.241 69.241,232.128 68.96,231.014C68.839,230.5 69.161,227.374 69.724,224.077C70.448,219.537 70.689,216.839 70.609,213.328C70.528,209.73 70.367,208.788 70.046,209.259Z" style="fill:rgb(78,78,82);fill-rule:nonzero;"/>
            </g>
        </g>
        <g transform="matrix(1,0,0,1,-39.9409,-164.536)">
            <g transform="matrix(1,0,0,1,0.499875,1.47401)">
                <path d="M42.217,231.785C41.895,232.385 42.217,233.027 43.745,234.826L45.715,237.052L47.847,236.624C49.978,236.153 52.592,234.997 52.592,234.526C52.552,234.397 52.23,233.798 51.788,233.284L50.983,232.256L49.938,233.155C48.249,234.569 46.238,234.355 44.227,232.556C42.739,231.185 42.538,231.1 42.217,231.785Z" style="fill:rgb(78,78,82);fill-rule:nonzero;"/>
            </g>
        </g>
        <g transform="matrix(1,0,0,1,-39.9409,-164.536)">
            <g transform="matrix(1,0,0,1,0.499875,1.47401)">
                <path d="M69.724,232.599C67.834,234.355 65.783,234.569 64.094,233.155L63.048,232.256L62.244,233.284C61.198,234.611 61.238,234.654 62.767,235.468C63.933,236.11 68.276,237.224 68.477,236.967C68.517,236.881 69.362,235.853 70.407,234.654C71.976,232.813 72.217,232.385 71.775,231.785C71.332,231.185 71.131,231.271 69.724,232.599Z" style="fill:rgb(78,78,82);fill-rule:nonzero;"/>
            </g>
        </g>
    </g>
</svg>
