<?xml version="1.0" encoding="UTF-8" standalone="no"?>
<!DOCTYPE svg PUBLIC "-//W3C//DTD SVG 1.1//EN" "http://www.w3.org/Graphics/SVG/1.1/DTD/svg11.dtd">
<svg width="100%" height="100%" viewBox="0 0 47 71" version="1.1" xmlns="http://www.w3.org/2000/svg" xmlns:xlink="http://www.w3.org/1999/xlink" xml:space="preserve" xmlns:serif="http://www.serif.com/" style="fill-rule:evenodd;clip-rule:evenodd;stroke-linejoin:round;stroke-miterlimit:2;">
    <g transform="matrix(1,0,0,1,2.5e-05,-8.90975e-06)">
        <g transform="matrix(1,0,0,1,-34.1899,-39.0038)">
            <g transform="matrix(1,0,0,1,0.499875,1.47401)">
                <path d="M39.924,37.96C38.839,38.174 37.27,38.474 36.506,38.602C35.139,38.859 35.219,38.902 38.718,40.272L42.337,41.685L44.549,47.681L46.761,53.719L50.702,57.659L54.683,61.642L54.402,52.006C54.241,46.739 54,42.285 53.839,42.157C53.598,41.9 42.176,37.446 42.016,37.531C41.975,37.574 41.051,37.746 39.924,37.96Z" style="fill:rgb(78,78,82);fill-rule:nonzero;"/>
            </g>
        </g>
        <g transform="matrix(1,0,0,1,-34.1899,-39.0038)">
            <g transform="matrix(1,0,0,1,0.499875,1.47401)">
                <path d="M66.065,39.716C62.968,40.872 60.314,41.985 60.193,42.157C60.032,42.285 59.791,46.739 59.63,52.049L59.349,61.642L63.29,57.659L67.271,53.676L71.695,41.6L75.314,40.229C79.215,38.773 79.215,38.773 74.711,38.131C73.705,37.96 72.62,37.788 72.298,37.703C71.976,37.617 69.161,38.516 66.065,39.716Z" style="fill:rgb(78,78,82);fill-rule:nonzero;"/>
            </g>
        </g>
        <g transform="matrix(1,0,0,1,-34.1899,-39.0038)">
            <g transform="matrix(1,0,0,1,0.499875,1.47401)">
                <path d="M36.627,47.038C34.053,49.993 33.611,50.893 33.771,52.991L33.892,54.833L38.919,55.561C41.694,55.989 44.147,56.289 44.388,56.203C44.67,56.16 44.107,54.062 42.941,50.764L41.05,45.411L39.643,45.283C38.436,45.154 38.034,45.411 36.627,47.038Z" style="fill:rgb(78,78,82);fill-rule:nonzero;"/>
            </g>
        </g>
        <g transform="matrix(1,0,0,1,-34.1899,-39.0038)">
            <g transform="matrix(1,0,0,1,0.499875,1.47401)">
                <path d="M72.659,46.353C70.005,53.462 69.201,56.117 69.603,56.203C69.884,56.289 72.337,55.989 75.112,55.561L80.139,54.833L80.26,52.82C80.38,50.935 80.26,50.636 78.209,48.109C76.399,45.796 75.836,45.411 74.589,45.283C73.262,45.154 73.061,45.283 72.659,46.353Z" style="fill:rgb(78,78,82);fill-rule:nonzero;"/>
            </g>
        </g>
        <g transform="matrix(1,0,0,1,-34.1899,-39.0038)">
            <g transform="matrix(1,0,0,1,0.499875,1.47401)">
                <path d="M54.416,105.664C51.44,103.48 50.354,101.553 51.118,99.754C51.882,97.956 55.622,87.806 55.622,87.806L56.326,85.965L56.351,85.889C56.661,84.938 56.913,84.166 57.07,84.166C57.271,84.166 57.553,84.98 57.834,85.965L58.437,87.806L62.941,99.712C63.746,101.639 62.781,103.523 59.885,105.664L57.15,107.677L54.416,105.664Z" style="fill:rgb(78,78,82);fill-rule:nonzero;"/>
            </g>
        </g>
        <g transform="matrix(1,0,0,1,-34.1899,-39.0038)">
            <g transform="matrix(1,0,0,1,0.499875,1.47401)">
                <path d="M39.361,75.387C36.224,66.18 33.69,58.043 33.69,57.272C33.69,56.544 33.811,55.902 34.012,55.902C34.173,55.945 36.747,56.459 39.803,57.144L45.272,58.343L49.897,62.968C55.206,68.235 54.964,67.636 55.045,76.629L55.045,87L51,97L48.248,95.472L45.071,92.089L39.361,75.387Z" style="fill:rgb(254,127,162);fill-rule:nonzero;"/>
            </g>
        </g>
        <g transform="matrix(1,0,0,1,-34.1899,-39.0038)">
            <g transform="matrix(1,0,0,1,0.499875,1.47401)">
                <path d="M74.68,75.674C77.817,66.377 80.35,58.162 80.35,57.384C80.35,56.649 80.229,56 80.028,56C79.867,56.043 77.294,56.562 74.238,57.254L68.77,58.465L64.146,63.134C58.839,68.453 59.08,67.847 59,76.928L59,87L63,97L65.795,95.952L68.971,92.537L74.68,75.674Z" style="fill:rgb(254,127,162);fill-rule:nonzero;"/>
            </g>
        </g>
        <g transform="matrix(1,0,0,1,-34.1899,-39.0038)">
            <g transform="matrix(1,0,0,1,0.499875,1.47401)">
                <path d="M39.844,89.392C39.643,92.518 39.522,95.173 39.602,95.259C39.683,95.387 40.568,95.173 41.653,94.831C43.342,94.274 43.543,94.06 43.664,92.775C43.745,91.833 43.302,90.077 42.257,87.551C41.412,85.452 40.608,83.739 40.487,83.739C40.366,83.739 40.085,86.309 39.844,89.392Z" style="fill:rgb(78,78,82);fill-rule:nonzero;"/>
            </g>
        </g>
        <g transform="matrix(1,0,0,1,-34.1899,-39.0038)">
            <g transform="matrix(1,0,0,1,0.499875,1.47401)">
                <path d="M71.734,87.551C70.769,90.034 70.287,91.876 70.367,92.775C70.488,94.06 70.689,94.274 72.378,94.831C73.464,95.173 74.348,95.387 74.429,95.259C74.67,94.959 73.785,83.739 73.504,83.739C73.383,83.739 72.579,85.452 71.734,87.551Z" style="fill:rgb(78,78,82);fill-rule:nonzero;"/>
            </g>
        </g>
        <g transform="matrix(1,0,0,1,-34.1899,-39.0038)">
            <g transform="matrix(1,0,0,1,0.499875,1.47401)">
                <path d="M42.056,96.587C40.809,97.272 39.683,98.214 39.563,98.6C39.201,99.97 38.035,108.192 38.155,108.364C38.236,108.406 39.321,106.993 40.528,105.152C42.498,102.154 43.061,101.683 45.716,100.27L48.692,98.685L47.123,96.972C46.279,96.073 45.314,95.302 44.952,95.302C44.63,95.345 43.303,95.902 42.056,96.587Z" style="fill:rgb(78,78,82);fill-rule:nonzero;"/>
            </g>
        </g>
        <g transform="matrix(1,0,0,1,-34.1899,-39.0038)">
            <g transform="matrix(1,0,0,1,0.499875,1.47401)">
                <path d="M66.909,96.972L65.341,98.685L68.317,100.27C71.011,101.683 71.534,102.154 73.625,105.28C74.872,107.164 75.917,108.449 75.917,108.107C75.917,107.721 75.555,105.366 75.113,102.796C74.671,100.227 74.309,98.086 74.309,98C74.309,97.743 69.483,95.302 68.96,95.302C68.679,95.302 67.754,96.073 66.909,96.972Z" style="fill:rgb(78,78,82);fill-rule:nonzero;"/>
            </g>
        </g>
    </g>
</svg>
