<?xml version="1.0" encoding="UTF-8" standalone="no"?>
<!DOCTYPE svg PUBLIC "-//W3C//DTD SVG 1.1//EN" "http://www.w3.org/Graphics/SVG/1.1/DTD/svg11.dtd">
<svg width="100%" height="100%" viewBox="0 0 60 46" version="1.1" xmlns="http://www.w3.org/2000/svg" xmlns:xlink="http://www.w3.org/1999/xlink" xml:space="preserve" xmlns:serif="http://www.serif.com/" style="fill-rule:evenodd;clip-rule:evenodd;stroke-linejoin:round;stroke-miterlimit:2;">
    <g transform="matrix(1,0,0,1,-0.000159,-0.0005)">
        <g transform="matrix(1,0,0,1,-27.7995,-27.7555)">
            <g id="front">
                <g transform="matrix(1,0,0,1,0.498659,1.475)">
                    <path d="M50.332,29.917C50.575,33.298 50.737,33.854 52.846,37.748C54.103,40.058 55.197,41.855 55.278,41.727C55.359,41.641 55.238,39.63 54.954,37.234C54.468,33.041 54.427,32.827 52.237,29.618L50.048,26.281L50.332,29.917Z" style="fill:rgb(78,78,82);fill-rule:nonzero;"/>
                </g>
                <g transform="matrix(1,0,0,1,0.498659,1.475)">
                    <path d="M61.968,29.618C59.982,32.613 59.901,32.955 59.292,37.405C58.968,39.972 58.725,42.111 58.765,42.197C58.846,42.24 59.901,40.486 61.157,38.303C63.185,34.709 63.469,33.939 63.874,30.559C64.158,28.505 64.28,26.751 64.198,26.665C64.117,26.537 63.104,27.906 61.968,29.618Z" style="fill:rgb(78,78,82);fill-rule:nonzero;"/>
                </g>
                <g transform="matrix(1,0,0,1,0.498659,1.475)">
                    <path d="M45.061,36.55L41.006,38.86L46.561,38.903L52.156,38.903L51.062,36.55C50.453,35.266 49.764,34.196 49.521,34.196C49.318,34.196 47.291,35.266 45.061,36.55Z" style="fill:rgb(78,78,82);fill-rule:nonzero;"/>
                </g>
                <g transform="matrix(1,0,0,1,0.498659,1.475)">
                    <path d="M63.185,36.55L61.969,38.903L67.402,38.903C70.403,38.903 72.835,38.817 72.835,38.732C72.835,38.475 65.172,34.196 64.766,34.196C64.564,34.196 63.834,35.266 63.185,36.55Z" style="fill:rgb(78,78,82);fill-rule:nonzero;"/>
                </g>
                <g transform="matrix(1,0,0,1,0.498659,1.475)">
                    <path d="M29.612,44.679L27.301,47.888L27.382,51.61C27.422,53.664 27.504,55.418 27.585,55.461C27.625,55.547 28.396,53.75 29.288,51.482C30.788,47.674 31.031,47.246 33.829,44.807C37.073,41.898 37.073,41.47 33.829,41.47C31.923,41.47 31.883,41.47 29.612,44.679Z" style="fill:rgb(254,127,162);fill-rule:nonzero;"/>
                </g>
                <g transform="matrix(1,0,0,1,0.498659,1.475)">
                    <path d="M44.533,41.77C44.006,41.983 39.829,50.413 40.073,50.712C40.194,50.798 43.641,51.397 47.817,52.081L55.4,53.279L55.4,50.669C55.4,49.215 55.278,47.161 55.156,46.091L54.913,44.166L50.777,42.796C46.804,41.513 45.628,41.299 44.533,41.77Z" style="fill:rgb(78,78,82);fill-rule:nonzero;"/>
                </g>
                <g transform="matrix(1,0,0,1,0.498659,1.475)">
                    <path d="M63.225,42.882C58.968,44.38 59.049,44.208 59.049,49.642L59.049,53.279L66.469,52.081C70.524,51.439 73.97,50.883 74.132,50.883C74.579,50.883 70.767,42.625 70.078,41.983C69.105,41.17 67.321,41.427 63.225,42.882Z" style="fill:rgb(78,78,82);fill-rule:nonzero;"/>
                </g>
                <g transform="matrix(1,0,0,1,0.498659,1.475)">
                    <path d="M78.025,41.769C77.539,41.898 78.147,42.711 80.458,44.893C83.296,47.503 83.702,48.145 84.959,51.354C85.729,53.322 86.5,55.119 86.702,55.333C86.865,55.59 87.027,54.049 87.027,51.91L87.027,48.059L84.716,44.765C82.404,41.47 82.404,41.47 80.539,41.513C79.525,41.555 78.39,41.641 78.025,41.769Z" style="fill:rgb(254,127,162);fill-rule:nonzero;"/>
                </g>
                <g transform="matrix(1,0,0,1,0.498659,1.475)">
                    <path d="M35.573,44.85C32.572,47.674 32.288,48.059 30.91,51.782C30.099,53.921 29.491,55.761 29.531,55.847C29.612,55.932 31.478,55.034 33.627,53.836L37.56,51.696L39.79,47.032C41.006,44.422 42.02,42.24 42.02,42.112C42.02,41.984 41.29,41.898 40.398,41.898C38.979,41.898 38.411,42.24 35.573,44.85Z" style="fill:rgb(254,127,162);fill-rule:nonzero;"/>
                </g>
                <g transform="matrix(1,0,0,1,0.498659,1.475)">
                    <path d="M72.43,42.326C72.43,42.582 73.403,44.85 74.619,47.374L76.809,51.953L80.701,53.964C82.85,55.119 84.675,56.017 84.756,56.017C84.878,56.017 84.229,54.135 83.337,51.781C81.756,47.759 81.553,47.417 78.593,44.722C75.957,42.326 75.227,41.898 73.971,41.898C73.119,41.898 72.43,42.112 72.43,42.326Z" style="fill:rgb(254,127,162);fill-rule:nonzero;"/>
                </g>
                <g transform="matrix(1,0,0,1,0.498659,1.475)">
                    <path d="M37.437,53.493C36.626,54.22 36.018,54.948 36.14,55.119C36.221,55.333 38.491,56.83 41.167,58.542L46.033,61.623L50.777,60.767C53.372,60.296 55.602,59.826 55.683,59.697C55.805,59.612 55.764,58.456 55.602,57.13C55.359,55.162 55.156,54.691 54.426,54.52C52.034,54.006 40.762,52.167 39.91,52.167C39.383,52.167 38.289,52.766 37.437,53.493Z" style="fill:rgb(78,78,82);fill-rule:nonzero;"/>
                </g>
                <g transform="matrix(1,0,0,1,0.498659,1.475)">
                    <path d="M66.023,53.45C62.414,54.049 59.333,54.734 59.17,54.862C59.049,55.033 58.846,56.189 58.724,57.472C58.522,60.125 57.873,59.74 64.644,60.938L68.375,61.623L73.281,58.542C75.957,56.83 78.228,55.333 78.309,55.119C78.43,54.948 77.822,54.22 76.93,53.493C75.024,51.91 74.781,51.91 66.023,53.45Z" style="fill:rgb(78,78,82);fill-rule:nonzero;"/>
                </g>
                <g transform="matrix(1,0,0,1,0.498659,1.475)">
                    <path d="M37.964,59.526C37.964,59.825 37.843,60.51 37.721,61.023C37.437,62.179 38.613,62.649 40.195,62.008L41.33,61.537L39.951,60.296C38.41,58.927 37.964,58.756 37.964,59.526Z" style="fill:rgb(78,78,82);fill-rule:nonzero;"/>
                </g>
                <g transform="matrix(1,0,0,1,0.498659,1.475)">
                    <path d="M74.417,60.211L73.038,61.494L74.133,62.008C75.512,62.692 76.485,62.307 76.485,61.066C76.485,59.055 75.876,58.841 74.417,60.211Z" style="fill:rgb(78,78,82);fill-rule:nonzero;"/>
                </g>
                <g transform="matrix(1,0,0,1,0.498659,1.475)">
                    <path d="M41.613,62.222C41.167,62.778 41.411,62.992 42.992,63.762C44.736,64.575 45.668,64.575 45.668,63.762C45.668,63.462 42.789,61.58 42.303,61.58C42.222,61.58 41.897,61.879 41.613,62.222Z" style="fill:rgb(78,78,82);fill-rule:nonzero;"/>
                </g>
                <g transform="matrix(1,0,0,1,0.498659,1.475)">
                    <path d="M69.875,62.607C68.618,63.42 68.456,63.676 68.902,64.104C69.348,64.489 69.916,64.404 71.416,63.719C73.038,62.992 73.241,62.735 72.835,62.222C72.146,61.366 71.7,61.409 69.875,62.607Z" style="fill:rgb(78,78,82);fill-rule:nonzero;"/>
                </g>
                <g transform="matrix(1,0,0,1,0.498659,1.475)">
                    <path d="M37.397,64.189C36.991,66.414 37.072,66.628 38.978,67.27C39.992,67.655 40.803,67.869 40.803,67.741C40.803,67.185 39.181,64.275 38.451,63.591C37.681,62.863 37.64,62.863 37.397,64.189Z" style="fill:rgb(78,78,82);fill-rule:nonzero;"/>
                </g>
                <g transform="matrix(1,0,0,1,0.498659,1.475)">
                    <path d="M75.593,63.591C74.863,64.49 73.647,66.929 73.647,67.528C73.647,67.784 74.417,67.656 75.431,67.314C77.215,66.672 77.215,66.629 77.012,65.089C76.728,63.035 76.363,62.65 75.593,63.591Z" style="fill:rgb(78,78,82);fill-rule:nonzero;"/>
                </g>
                <g transform="matrix(1,0,0,1,0.498659,1.475)">
                    <path d="M40.398,64.618C40.398,65.131 41.249,66.629 42.303,67.912L44.209,70.265L44.777,68.468C45.101,67.484 45.263,66.629 45.223,66.543C44.087,65.73 40.884,63.719 40.681,63.719C40.519,63.719 40.398,64.147 40.398,64.618Z" style="fill:rgb(78,78,82);fill-rule:nonzero;"/>
                </g>
                <g transform="matrix(1,0,0,1,0.498659,1.475)">
                    <path d="M51.182,64.96C47.087,66.415 46.276,67.399 46.763,70.266L47.087,72.277L49.358,70.822C50.615,70.009 52.399,69.239 53.331,69.068C54.669,68.854 54.994,68.597 54.994,67.87C54.994,67.356 55.115,66.201 55.237,65.302C55.561,63.377 55.521,63.377 51.182,64.96Z" style="fill:rgb(78,78,82);fill-rule:nonzero;"/>
                </g>
                <g transform="matrix(1,0,0,1,0.498659,1.475)">
                    <path d="M59.13,66.158L59.252,68.64L61.198,69.153C62.252,69.41 63.996,70.223 65.091,70.95C66.186,71.635 67.199,72.106 67.321,71.977C67.443,71.806 67.564,70.779 67.564,69.624C67.564,68.169 67.321,67.314 66.794,66.757C66.145,66.073 60.347,63.719 59.333,63.719C59.171,63.719 59.049,64.832 59.13,66.158Z" style="fill:rgb(78,78,82);fill-rule:nonzero;"/>
                </g>
                <g transform="matrix(1,0,0,1,0.498659,1.475)">
                    <path d="M71.091,65.131C69.226,66.372 69.145,66.501 69.388,67.955C69.55,68.811 69.794,69.624 69.915,69.795C70.321,70.18 73.564,66.158 73.848,64.875C74.213,63.377 73.605,63.42 71.091,65.131Z" style="fill:rgb(78,78,82);fill-rule:nonzero;"/>
                </g>
            </g>
        </g>
    </g>
</svg>
